<?xml version="1.0" encoding="utf-8"?>
<!-- Generator: Adobe Illustrator 21.0.2, SVG Export Plug-In . SVG Version: 6.00 Build 0)  -->
<svg version="1.1" id="Isolation_Mode" xmlns="http://www.w3.org/2000/svg" xmlns:xlink="http://www.w3.org/1999/xlink" x="0px"
	 y="0px" viewBox="0 0 283.46 283.46" style="enable-background:new 0 0 283.46 283.46;" xml:space="preserve">
<style type="text/css">
	.st0{fill:none;}
	.st1{fill:#E37925;}
	.st2{fill:#FFFFFF;}
</style>
<g>
	<path class="st0" d="M24.996,136.318h26.626c0.258,0,0.387-0.15,0.387-0.451v-9.09c0-0.3-0.129-0.451-0.387-0.451H24.996
		c-0.301,0-0.451,0.151-0.451,0.451v9.09C24.545,136.168,24.695,136.318,24.996,136.318z"/>
	<path class="st0" d="M53.878,155.272v-9.992c0-0.258-0.151-0.387-0.451-0.387H24.996c-0.301,0-0.451,0.129-0.451,0.387v9.992
		c0,0.301,0.15,0.451,0.451,0.451h28.431C53.727,155.723,53.878,155.573,53.878,155.272z"/>
	<path class="st1" d="M43.416,177.252H15.782c-5.811,39.479,17.454,67.118,63.15,67.118c36.237,0,78.451-17.383,114.216-44.267
		c-29.802,20.1-63.379,32.728-92.619,32.728C61.37,232.831,40.595,210.188,43.416,177.252z"/>
	<path class="st1" d="M203.657,39.09c-35.338,0-76.358,16.541-111.538,42.3l11.11,13.882
		c33.299-26.912,74.054-44.646,108.713-44.646c29.253,0,48.225,12.628,54.802,32.728C262.045,56.47,239.909,39.09,203.657,39.09z"/>
	<path class="st1" d="M59.809,161.622c1.762-1.741,2.643-3.857,2.643-6.35v-9.992c0-2.321-0.838-4.362-2.514-6.124
		c0.429-0.903,0.645-1.999,0.645-3.288v-9.09c0-2.492-0.882-4.61-2.643-6.35c-1.763-1.74-3.868-2.611-6.318-2.611H16.035v46.417
		h37.392C55.919,164.233,58.047,163.363,59.809,161.622z M24.545,126.777c0-0.3,0.15-0.451,0.451-0.451h26.626
		c0.258,0,0.387,0.151,0.387,0.451v9.09c0,0.301-0.129,0.451-0.387,0.451H24.996c-0.301,0-0.451-0.15-0.451-0.451V126.777z
		 M24.545,155.272v-9.992c0-0.258,0.15-0.387,0.451-0.387h28.431c0.3,0,0.451,0.129,0.451,0.387v9.992
		c0,0.301-0.151,0.451-0.451,0.451H24.996C24.695,155.723,24.545,155.573,24.545,155.272z"/>
	<polygon class="st1" points="112.285,155.723 78.182,155.723 78.182,145.28 105.645,145.28 105.645,136.77 78.182,136.77 
		78.182,126.326 112.285,126.326 112.285,117.816 69.607,117.816 69.607,164.233 112.285,164.233 	"/>
</g>
<g>
	<path class="st2" d="M239.093,106.182h23.598c1.175-29.12-18.093-48.914-53.446-48.914c-30.3,0-65.595,14.548-95.487,37.008
		c24.903-16.802,52.984-27.379,77.422-27.379C220.978,66.896,238.056,82.606,239.093,106.182z"/>
	<path class="st2" d="M98.575,216.561c-24.443,0-40.322-10.577-45.815-27.376c3.931,22.456,22.444,37.005,52.743,37.005
		c28.824,0,62.175-13.165,91.091-33.815l-9.468-11.279C159.721,202.536,126.742,216.561,98.575,216.561z"/>
	<polygon class="st2" points="163.666,117.816 154.318,117.816 138.459,136.77 127.499,136.77 127.499,117.816 118.925,117.816 
		118.925,164.233 127.499,164.233 127.499,145.28 138.459,145.28 154.318,164.233 163.666,164.233 163.666,161.977 146.131,141.025 
		163.666,120.072 	"/>
	<polygon class="st2" points="170.371,164.233 213.049,164.233 213.049,155.723 178.946,155.723 178.946,145.28 206.409,145.28 
		206.409,136.77 178.946,136.77 178.946,126.326 213.049,126.326 213.049,117.816 170.371,117.816 	"/>
	<polygon class="st2" points="258.37,117.816 242.834,137.543 227.233,117.816 217.11,117.816 238.578,146.891 238.578,164.233 
		247.088,164.233 247.088,146.891 268.556,117.816 	"/>
</g>
</svg>
