<?xml version="1.0" encoding="utf-8"?>
<!-- Generator: Adobe Illustrator 21.0.2, SVG Export Plug-In . SVG Version: 6.00 Build 0)  -->
<svg version="1.1" id="Слой_1" xmlns="http://www.w3.org/2000/svg" xmlns:xlink="http://www.w3.org/1999/xlink" x="0px" y="0px"
	 viewBox="0 0 1920 1080" style="enable-background:new 0 0 1920 1080;" xml:space="preserve">
<style type="text/css">
	.st0{opacity:0.15;}
	.st1{fill-rule:evenodd;clip-rule:evenodd;fill:#FFFFFF;}
</style>
<g class="st0">
	<g>
		<path class="st1" d="M368.97,121.791h-58.684v406.272h58.684V121.791z M1230.291,789.467l300.874,273.005l39.434-43.46
			l-300.874-273.004L1230.291,789.467z M1017.144,651.457l128.241-222.718l-257.303,0.312L1017.144,651.457z M1751.449,523.553
			L1688.595,636.4L1818,634.361L1751.449,523.553z M223,953.893l302.442-4.76L369.904,690.585L223,953.893z M1524.589,87.183
			h-153.481v139.938h153.481V87.183z M769.223,1302.646h355.112V991.17H769.223V1302.646z M684.207-132.255
			c-61.912,0-112.101,50.189-112.101,112.101S622.295,91.947,684.207,91.947S796.308,41.758,796.308-20.154
			S746.119-132.255,684.207-132.255z"/>
	</g>
</g>
</svg>
