<?xml version="1.0" encoding="utf-8"?>
<!-- Generator: Adobe Illustrator 21.0.2, SVG Export Plug-In . SVG Version: 6.00 Build 0)  -->
<svg version="1.1" id="Слой_1" xmlns="http://www.w3.org/2000/svg" xmlns:xlink="http://www.w3.org/1999/xlink" x="0px" y="0px"
	 viewBox="0 0 154 125" style="enable-background:new 0 0 154 125;" xml:space="preserve">
<style type="text/css">
	.st0{fill:#E37926;}
	.st1{fill:#FFFFFF;}
</style>
<g id="XMLID_18_">
	<path id="XMLID_34_" class="st0" d="M52.978,113.404c-21.881,0-33.489-12.652-31.912-31.056H5.624
		c-3.247,22.059,9.753,37.503,35.286,37.503c20.248,0,43.836-9.713,63.82-24.735C88.078,106.348,69.316,113.404,52.978,113.404z"/>
	<path id="XMLID_33_" class="st1" d="M143.589,42.637c0.657-16.271-10.11-27.331-29.864-27.331c-16.93,0-36.652,8.129-53.355,20.679
		c13.915-9.388,29.606-15.298,43.261-15.298c16.65,0,26.193,8.778,26.772,21.951L143.589,42.637L143.589,42.637z"/>
	<path id="XMLID_32_" class="st0" d="M110.603,5.148c-19.746,0-42.666,9.243-62.323,23.636l6.208,7.757
		c18.606-15.038,41.379-24.947,60.745-24.947c16.345,0,26.946,7.056,30.622,18.287C143.228,14.86,130.859,5.148,110.603,5.148z"/>
	<path id="XMLID_31_" class="st1" d="M51.887,104.313c-13.658,0-22.531-5.91-25.6-15.297c2.196,12.548,12.541,20.677,29.471,20.677
		c16.106,0,34.741-7.356,50.898-18.895l-5.29-6.302C86.053,96.477,67.625,104.313,51.887,104.313z"/>
	<path id="XMLID_27_" class="st0" d="M30.658,54.145v5.079c0,0.72-0.121,1.333-0.36,1.837c0.937,0.985,1.405,2.125,1.405,3.422
		v5.583c0,1.393-0.492,2.575-1.477,3.548c-0.985,0.973-2.174,1.459-3.566,1.459H5.766V49.138h19.885c1.369,0,2.545,0.486,3.53,1.459
		C30.165,51.569,30.658,52.752,30.658,54.145z M25.651,53.893H10.773c-0.168,0-0.252,0.085-0.252,0.252v5.079
		c0,0.168,0.084,0.252,0.252,0.252H25.65c0.144,0,0.216-0.084,0.216-0.252v-5.079C25.867,53.977,25.795,53.893,25.651,53.893z
		 M26.912,70.067v-5.583c0-0.144-0.084-0.216-0.252-0.216H10.773c-0.168,0-0.252,0.072-0.252,0.216v5.583
		c0,0.168,0.084,0.252,0.252,0.252h15.886C26.827,70.319,26.912,70.235,26.912,70.067z"/>
	<path id="XMLID_25_" class="st0" d="M59.547,49.138v4.755H40.492v5.836h15.346v4.755H40.492v5.835h19.056v4.755H35.7V49.138H59.547
		z"/>
	<path id="XMLID_23_" class="st1" d="M83.034,49.138h5.224v1.261L78.46,62.107l9.798,11.707v1.261h-5.224l-8.862-10.591h-6.124
		v10.591h-4.791V49.138h4.791v10.591h6.124L83.034,49.138z"/>
	<path id="XMLID_21_" class="st1" d="M115.85,49.138v4.755H96.795v5.836h15.345v4.755H96.795v5.835h19.056v4.755H92.004V49.138
		H115.85z"/>
	<path id="XMLID_19_" class="st1" d="M141.175,49.138h5.691l-11.995,16.246v9.69h-4.755v-9.69L118.12,49.138h5.656l8.717,11.023
		L141.175,49.138z"/>
</g>
</svg>
