<svg id="Isolation_Mode" data-name="Isolation Mode" xmlns="http://www.w3.org/2000/svg" width="283.46" height="283.46" viewBox="0 0 283.46 283.46">
  <defs>
    <style>
      .cls-1 {
        fill: none;
      }

      .cls-2 {
        fill: #e37925;
      }

      .cls-3 {
        fill: #fff;
      }
    </style>
  </defs>
  <title>Artboard 1</title>
  <g>
    <path class="cls-1" d="M25,136.32H51.62q.39,0,.39-.45v-9.09c0-.3-.13-.45-.39-.45H25a.4.4,0,0,0-.45.45v9.09A.4.4,0,0,0,25,136.32Z"/>
    <path class="cls-1" d="M53.88,155.27v-10c0-.26-.15-.39-.45-.39H25q-.45,0-.45.39v10a.4.4,0,0,0,.45.45H53.43A.4.4,0,0,0,53.88,155.27Z"/>
    <path class="cls-2" d="M43.42,177.25H15.78C10,216.73,33.24,244.37,78.93,244.37c36.24,0,78.45-17.38,114.22-44.27-29.8,20.1-63.38,32.73-92.62,32.73C61.37,232.83,40.59,210.19,43.42,177.25Z"/>
    <path class="cls-2" d="M203.66,39.09c-35.34,0-76.36,16.54-111.54,42.3l11.11,13.88c33.3-26.91,74.05-44.65,108.71-44.65,29.25,0,48.22,12.63,54.8,32.73C262,56.47,239.91,39.09,203.66,39.09Z"/>
    <path class="cls-2" d="M59.81,161.62a8.59,8.59,0,0,0,2.64-6.35v-10a8.62,8.62,0,0,0-2.51-6.12,7.62,7.62,0,0,0,.64-3.29v-9.09a9,9,0,0,0-9-9H16v46.42H53.43A8.75,8.75,0,0,0,59.81,161.62ZM24.55,126.78a.4.4,0,0,1,.45-.45H51.62c.26,0,.39.15.39.45v9.09q0,.45-.39.45H25a.4.4,0,0,1-.45-.45Zm0,28.5v-10q0-.39.45-.39H53.43c.3,0,.45.13.45.39v10a.4.4,0,0,1-.45.45H25A.4.4,0,0,1,24.55,155.27Z"/>
    <polygon class="cls-2" points="112.28 155.72 78.18 155.72 78.18 145.28 105.64 145.28 105.64 136.77 78.18 136.77 78.18 126.33 112.28 126.33 112.28 117.82 69.61 117.82 69.61 164.23 112.28 164.23 112.28 155.72"/>
  </g>
  <g>
    <path class="cls-3" d="M239.09,106.18h23.6c1.17-29.12-18.09-48.91-53.45-48.91-30.3,0-65.6,14.55-95.49,37,24.9-16.8,53-27.38,77.42-27.38C221,66.9,238.06,82.61,239.09,106.18Z"/>
    <path class="cls-3" d="M98.58,216.56c-24.44,0-40.32-10.58-45.82-27.38,3.93,22.46,22.44,37,52.74,37,28.82,0,62.17-13.17,91.09-33.82l-9.47-11.28C159.72,202.54,126.74,216.56,98.58,216.56Z"/>
    <polygon class="cls-3" points="163.67 117.82 154.32 117.82 138.46 136.77 127.5 136.77 127.5 117.82 118.92 117.82 118.92 164.23 127.5 164.23 127.5 145.28 138.46 145.28 154.32 164.23 163.67 164.23 163.67 161.98 146.13 141.03 163.67 120.07 163.67 117.82"/>
    <polygon class="cls-3" points="170.37 164.23 213.05 164.23 213.05 155.72 178.95 155.72 178.95 145.28 206.41 145.28 206.41 136.77 178.95 136.77 178.95 126.33 213.05 126.33 213.05 117.82 170.37 117.82 170.37 164.23"/>
    <polygon class="cls-3" points="258.37 117.82 242.83 137.54 227.23 117.82 217.11 117.82 238.58 146.89 238.58 164.23 247.09 164.23 247.09 146.89 268.56 117.82 258.37 117.82"/>
  </g>
</svg>
