<?xml version="1.0" encoding="utf-8"?>
<!-- Generator: Adobe Illustrator 21.0.2, SVG Export Plug-In . SVG Version: 6.00 Build 0)  -->
<svg version="1.1" id="Слой_1" xmlns="http://www.w3.org/2000/svg" xmlns:xlink="http://www.w3.org/1999/xlink" x="0px" y="0px"
	 viewBox="0 0 1417.32 1417.32" style="enable-background:new 0 0 1417.32 1417.32;" xml:space="preserve">
<style type="text/css">
	.st0{fill:#FFFFFF;}
	.st1{display:none;fill:#FFFFFF;}
	.st2{fill-rule:evenodd;clip-rule:evenodd;fill:#FFFFFF;}
</style>
<g>
	<g>
		<path class="st0" d="M526.866,523.815v45.891h275.21c13.765,0,22.944-9.179,22.944-22.944V432.033
			c0-13.768-9.179-22.966-22.944-22.966H182.847c-89.411,0-160.512,71.161-160.512,160.639V891.01h45.885V569.706
			c0-64.249,50.455-114.748,114.627-114.748h29.85l64.22,169.84c2.294,6.871,11.448,13.768,20.627,13.768
			c9.176,0,18.332-6.897,25.213-13.768l64.22-169.84h392.132v68.857H526.866z M299.814,551.371l-36.665-96.413h73.399
			L299.814,551.371z M412.216,1349.99h-91.731V913.957H274.6v436.033h-91.753V592.654h-45.818v780.302
			c0,13.724,9.176,22.925,22.922,22.925h275.187c13.743,0,22.919-9.201,22.919-22.925V592.654h-45.84V1349.99z M320.485,684.458
			H274.6v45.891h45.885V684.458z M274.6,822.153h45.885v-45.891H274.6V822.153z M274.6,386.12h45.885
			c64.22,0,114.653-50.458,114.653-114.751v-68.857c0-64.226-50.433-114.751-114.653-114.751H274.6
			c-64.198,0-114.65,50.525-114.65,114.751v68.857C159.951,335.662,210.403,386.12,274.6,386.12z M205.813,202.512
			c0-38.997,29.806-68.816,68.787-68.816h45.885c39.007,0,68.787,29.819,68.787,68.816v68.857c0,38.997-29.781,68.86-68.787,68.86
			H274.6c-38.981,0-68.787-29.863-68.787-68.86V202.512z M710.322,340.229h504.509c13.791,0,22.944-9.179,22.944-22.947V41.869
			c0-13.746-9.153-22.944-22.944-22.944H710.322c-13.743,0-22.919,9.198-22.919,22.944v275.413
			C687.404,331.05,696.579,340.229,710.322,340.229z M733.266,64.839h458.646v229.477H733.266V64.839z M893.804,868.066H572.729
			c-13.765,0-22.896,9.157-22.896,22.944v183.589c0,13.765,9.131,22.944,22.896,22.944h137.594v68.86H572.729
			c-13.765,0-22.896,9.176-22.896,22.944v183.608c0,13.724,9.131,22.925,22.896,22.925h321.075c13.765,0,22.944-9.201,22.944-22.925
			v-183.608c0-13.768-9.179-22.944-22.944-22.944H756.188v-68.86h137.616c13.765,0,22.944-9.179,22.944-22.944V891.01
			C916.748,877.223,907.569,868.066,893.804,868.066z M870.86,1212.295v137.695H595.672v-137.695H870.86z M870.86,1051.652H595.672
			V913.957H870.86V1051.652z M1375.416,1097.543c13.743,0,22.919-9.179,22.919-22.944V891.01c0-13.787-9.176-22.944-22.919-22.944
			h-321.075c-13.765,0-22.922,9.157-22.922,22.944v183.589c0,13.765,9.157,22.944,22.922,22.944h137.571v68.86h-137.571
			c-13.765,0-22.922,9.176-22.922,22.944v183.608c0,13.724,9.157,22.925,22.922,22.925h321.075c13.743,0,22.919-9.201,22.919-22.925
			v-183.608c0-13.768-9.176-22.944-22.919-22.944h-137.641v-68.86H1375.416z M1352.447,1212.295v137.695h-275.184v-137.695H1352.447
			z M1077.263,1051.652V913.957h275.184v137.695H1077.263z M1237.775,822.153v-68.857c0-13.768-9.153-22.947-22.944-22.947H985.509
			V386.12h-45.862v344.229H733.266c-13.765,0-22.944,9.179-22.944,22.947v68.857h45.865v-45.891h435.725v45.891H1237.775z
			 M1054.341,110.73H779.109v45.891h275.232V110.73z M779.109,248.425h366.96v-45.913h-366.96V248.425z M710.322,959.848h-45.818
			v45.891h45.818V959.848z M802.076,959.848h-45.888v45.891h45.888V959.848z M710.322,1258.205h-45.818v45.872h45.818V1258.205z
			 M802.076,1258.205h-45.888v45.872h45.888V1258.205z M1191.913,1258.205h-45.843v45.872h45.843V1258.205z M1283.663,1258.205
			h-45.888v45.872h45.888V1258.205z M1146.069,1005.739h45.843v-45.891h-45.843V1005.739z M1237.775,1005.739h45.888v-45.891
			h-45.888V1005.739z"/>
	</g>
</g>
</svg>
