<?xml version="1.0" encoding="utf-8"?>
<!-- Generator: Adobe Illustrator 21.0.2, SVG Export Plug-In . SVG Version: 6.00 Build 0)  -->
<svg version="1.1" id="Слой_1" xmlns="http://www.w3.org/2000/svg" xmlns:xlink="http://www.w3.org/1999/xlink" x="0px" y="0px"
	 viewBox="0 0 1417.32 1417.32" style="enable-background:new 0 0 1417.32 1417.32;" xml:space="preserve">
<style type="text/css">
	.st0{fill:#FFFFFF;}
	.st1{display:none;fill:#FFFFFF;}
	.st2{fill-rule:evenodd;clip-rule:evenodd;fill:#FFFFFF;}
</style>
<path class="st0" d="M1187.805,151.668H235.861c-52.49,0-95.194,42.704-95.194,95.194v590.205v76.156
	c0,52.49,42.704,95.194,95.194,95.194h319.891l-31.148,171.35h-74.804c-21.781,0-41.352,12.09-51.1,31.567
	c-8.91,17.839-7.977,38.611,2.494,55.574s28.654,27.092,48.587,27.092h524.083c19.934,0,38.097-10.129,48.587-27.092
	c10.49-16.964,11.423-37.735,2.494-55.574c-9.71-19.477-29.282-31.567-51.062-31.567H899.08l-31.148-171.35h319.872
	c52.49,0,95.194-42.704,95.194-95.194v-76.156V246.862C1282.999,194.372,1240.295,151.668,1187.805,151.668z M178.744,246.862
	c0-31.49,25.626-57.117,57.117-57.117h951.944c31.49,0,57.117,25.626,57.117,57.117v571.166H178.744V246.862z M860.374,1179.767
	h-53.347c-10.509,0-19.039,8.529-19.039,19.039c0,10.509,8.529,19.039,19.039,19.039h76.156h90.701
	c7.254,0,13.784,4.036,17.04,10.529c4.284,8.568,0.838,15.802-0.819,18.525c-1.714,2.703-6.645,9.024-16.221,9.024H449.782
	c-9.577,0-14.527-6.321-16.202-9.043s-5.121-9.938-0.819-18.525c3.237-6.473,9.767-10.51,17.021-10.51h90.701h152.311
	c10.509,0,19.039-8.529,19.039-19.039c0-10.51-8.529-19.039-19.039-19.039H563.292l31.148-171.35h234.768L860.374,1179.767z
	 M1244.922,913.223c0,31.49-25.626,57.117-57.117,57.117h-342.7H578.561h-342.7c-31.49,0-57.117-25.626-57.117-57.117v-57.117
	h1066.177V913.223z"/>
<path class="st0" d="M654.716,532.445H464.327V342.057c0-10.509-8.529-19.039-19.039-19.039
	c-125.98,0-228.467,102.486-228.467,228.467s102.486,228.467,228.467,228.467s228.467-102.486,228.467-228.467
	C673.755,540.975,665.226,532.445,654.716,532.445z M445.289,741.873c-104.98,0-190.389-85.408-190.389-190.389
	c0-98.545,75.28-179.86,171.35-189.437v189.437c0,10.509,8.529,19.039,19.039,19.039h189.437
	C625.149,666.593,543.834,741.873,445.289,741.873z"/>
<path class="st0" d="M521.444,246.862c-10.509,0-19.039,8.529-19.039,19.039v209.428c0,10.509,8.529,19.039,19.039,19.039h209.428
	c10.509,0,19.039-8.529,19.039-19.039C749.911,349.348,647.424,246.862,521.444,246.862z M540.483,456.29V285.892
	c89.806,8.948,161.45,80.592,170.398,170.398H540.483z"/>
<path class="st0" d="M1187.805,227.823H807.027c-10.509,0-19.039,8.529-19.039,19.039v514.05c0,10.509,8.529,19.039,19.039,19.039
	h380.778c10.509,0,19.039-8.529,19.039-19.039v-514.05C1206.844,236.353,1198.314,227.823,1187.805,227.823z M1168.766,741.873
	h-342.7V265.901h342.7V741.873z"/>
<path class="st0" d="M883.183,361.095h114.233c10.509,0,19.039-8.529,19.039-19.039c0-10.509-8.529-19.039-19.039-19.039H883.183
	c-10.509,0-19.039,8.529-19.039,19.039C864.144,352.566,872.673,361.095,883.183,361.095z"/>
<path class="st0" d="M883.183,437.251h228.467c10.509,0,19.039-8.529,19.039-19.039s-8.53-19.039-19.039-19.039H883.183
	c-10.509,0-19.039,8.529-19.039,19.039S872.673,437.251,883.183,437.251z"/>
<path class="st0" d="M883.183,513.406h114.233c10.509,0,19.039-8.529,19.039-19.039s-8.529-19.039-19.039-19.039H883.183
	c-10.509,0-19.039,8.529-19.039,19.039S872.673,513.406,883.183,513.406z"/>
<path class="st0" d="M883.183,589.562h228.467c10.509,0,19.039-8.529,19.039-19.039s-8.53-19.039-19.039-19.039H883.183
	c-10.509,0-19.039,8.529-19.039,19.039S872.673,589.562,883.183,589.562z"/>
<path class="st0" d="M883.183,665.718h114.233c10.509,0,19.039-8.529,19.039-19.039s-8.529-19.039-19.039-19.039H883.183
	c-10.509,0-19.039,8.529-19.039,19.039S872.673,665.718,883.183,665.718z"/>
<path class="st0" d="M673.755,932.262h76.156c10.509,0,19.039-8.529,19.039-19.039c0-10.509-8.529-19.039-19.039-19.039h-76.156
	c-10.509,0-19.039,8.529-19.039,19.039C654.716,923.732,663.246,932.262,673.755,932.262z"/>
</svg>
