<?xml version="1.0" encoding="utf-8"?>
<!-- Generator: Adobe Illustrator 21.0.2, SVG Export Plug-In . SVG Version: 6.00 Build 0)  -->
<svg version="1.1" id="Слой_1" xmlns="http://www.w3.org/2000/svg" xmlns:xlink="http://www.w3.org/1999/xlink" x="0px" y="0px"
	 viewBox="0 0 1417.32 1417.32" style="enable-background:new 0 0 1417.32 1417.32;" xml:space="preserve">
<style type="text/css">
	.st0{fill:#FFFFFF;}
	.st1{display:none;fill:#FFFFFF;}
	.st2{fill-rule:evenodd;clip-rule:evenodd;fill:#FFFFFF;}
</style>
<path class="st0" d="M1257.823,209.668H415.702c-44.98,0-81.573,36.596-81.573,81.573v250.398
	c-22.394,4.487-43.149,15.857-58.944,32.717c-20.767,22.165-31.543,52.262-29.569,82.571l3.469,53.178l8.098,124.181
	c3.079,47.191,29.653,88.97,71.088,111.757c20.79,11.434,43.592,17.153,66.4,17.153c22.802,0,45.612-5.718,66.397-17.15
	c11.682-6.425,22.129-14.403,31.255-23.54h765.5c44.98,0,81.573-36.596,81.573-81.573V291.244
	C1339.396,246.264,1302.803,209.668,1257.823,209.668z M312.408,609.238c11.325-12.087,26.682-18.744,43.246-18.744h65.742
	l-14.215,37.905c-3.9,5.928-30.526,41.664-108.901,52.221l-1.76-27.008C295.441,637.083,301.083,621.323,312.408,609.238z
	 M470.936,603.667c2.099,1.706,4.106,3.556,5.994,5.571c11.322,12.085,16.967,27.845,15.888,44.373l-0.319,4.895
	c-15.197-4.333-22.7-7.522-26.233-9.348c-5.157-2.665-8.221-4.895-9.98-6.425L470.936,603.667z M436.482,901.349
	c-26.185,14.401-57.445,14.401-83.632-0.003c-26.093-14.35-42.83-40.659-44.766-70.379l-6.481-99.366
	c62.031-7.784,100.685-29.625,123.37-48.581c5.068,4.099,11.031,7.922,17.872,11.46c10.233,5.287,25.478,10.552,46.26,15.969
	l-7.861,120.519C479.312,860.687,462.577,886.996,436.482,901.349z M1188.564,832.355c14.087,0,25.506-11.422,25.506-25.506
	c0-14.084-11.419-25.506-25.506-25.506h-27.707V360.919c0-14.084-11.419-25.506-25.506-25.506h-123.154
	c-14.087,0-25.506,11.422-25.506,25.506v420.424h-31.712V598.854c0-14.084-11.419-25.506-25.506-25.506H806.32
	c-14.087,0-25.506,11.422-25.506,25.506v182.488h-29.883V461.175c0-14.084-11.419-25.506-25.506-25.506H602.271
	c-14.087,0-25.506,11.422-25.506,25.506v320.167h-41.157l5.803-88.96l2.311-35.453c1.847-28.322-7.448-56.453-25.616-78.105V326.6
	c0-14.084-11.419-25.506-25.506-25.506s-25.506,11.422-25.506,25.506v218.1c-10.723-3.42-21.991-5.219-33.41-5.219h-48.543V291.244
	c0-16.852,13.71-30.561,30.561-30.561h842.123c16.852,0,30.561,13.71,30.561,30.561v549.689c0,16.852-13.709,30.561-30.561,30.561
	h-733.35c4.18-11.822,6.841-24.3,7.682-37.208l0.125-1.931L1188.564,832.355L1188.564,832.355z M699.919,781.343h-72.141V486.681
	h72.141V781.343z M903.967,781.343h-72.141V624.36h72.141V781.343z M1109.842,781.343h-72.141V386.425h72.141V781.343z"/>
<path class="st0" d="M728.95,1146.531c-15.449-85.267-83.002-153.322-168.093-169.345c-12.842-2.418-25.983-3.647-39.057-3.647
	h-38.92c-6.764,0-13.253,2.688-18.035,7.471l-70.177,70.177l-70.175-70.177c-4.782-4.782-11.271-7.471-18.035-7.471h-38.92
	c-13.074,0-26.215,1.227-39.055,3.647c-85.093,16.02-152.646,84.078-168.095,169.347c-4.56,25.167,2.229,50.862,18.625,70.496
	c16.395,19.632,40.468,30.89,66.048,30.89h499.22c25.577,0,49.65-11.258,66.048-30.89
	C726.718,1197.395,733.508,1171.7,728.95,1146.531L728.95,1146.531z M671.171,1184.328c-6.675,7.994-16.477,12.58-26.891,12.58
	H145.06c-10.414,0-20.216-4.586-26.891-12.58c-6.675-7.994-9.44-18.454-7.583-28.704c11.705-64.607,62.878-116.17,127.344-128.308
	c9.733-1.836,19.696-2.765,29.61-2.765h28.355l80.739,80.74c9.963,9.958,26.113,9.96,36.071,0l80.742-80.74h28.355
	c9.914,0,19.877,0.928,29.613,2.765c64.461,12.138,115.634,63.701,127.341,128.311v-0.003
	C680.611,1165.874,677.846,1176.337,671.171,1184.328z"/>
<path class="st0" d="M1239.923,284.658c-14.087,0-25.506,11.422-25.506,25.506v96.91c0,14.084,11.419,25.506,25.506,25.506
	s25.506-11.422,25.506-25.506v-96.91C1265.429,296.077,1254.01,284.658,1239.923,284.658z"/>
<path class="st0" d="M1239.923,463.198c-14.087,0-25.506,11.422-25.506,25.506v12.756c0,14.084,11.419,25.506,25.506,25.506
	s25.506-11.422,25.506-25.506v-12.756C1265.429,474.617,1254.01,463.198,1239.923,463.198z"/>
</svg>
