<?xml version="1.0" encoding="utf-8"?>
<!-- Generator: Adobe Illustrator 21.0.2, SVG Export Plug-In . SVG Version: 6.00 Build 0)  -->
<svg version="1.1" id="Слой_1" xmlns="http://www.w3.org/2000/svg" xmlns:xlink="http://www.w3.org/1999/xlink" x="0px" y="0px"
	 viewBox="0 0 1417.32 1417.32" style="enable-background:new 0 0 1417.32 1417.32;" xml:space="preserve">
<style type="text/css">
	.st0{fill:#FFFFFF;}
	.st1{display:none;fill:#FFFFFF;}
	.st2{fill-rule:evenodd;clip-rule:evenodd;fill:#FFFFFF;}
</style>
<g>
	<g>
		<path class="st0" d="M161.22,901.199c61.177,0,110.552-49.375,110.552-110.552c0-20.253-5.416-39.21-14.876-55.513L434.3,557.73
			c16.303,9.46,35.26,14.876,55.513,14.876c20.338,0,39.37-5.463,55.719-14.998l81.736,81.436
			c-9.603,16.392-15.109,35.49-15.109,55.908c0,61.173,49.375,110.552,110.552,110.552c61.177,0,110.552-49.375,110.552-110.552
			c0-20.28-5.431-39.261-14.915-55.579l382.709-383.467c16.425,9.657,35.579,15.198,56.059,15.198
			c61.177,0,110.552-49.375,110.552-110.553c-0.004-61.177-49.379-110.552-110.552-110.552s-110.552,49.375-110.552,110.552
			c0,20.024,5.291,38.782,14.552,54.96L778.153,599.234c-16.287-9.434-35.218-14.834-55.442-14.834
			c-20.085,0-38.899,5.323-55.112,14.639l-81.985-81.685c9.384-16.255,14.751-35.136,14.751-55.3
			c0-61.177-49.379-110.552-110.552-110.552c-61.173,0-110.552,49.375-110.552,110.552c0,20.25,5.415,39.205,14.873,55.506
			L216.727,694.967c-16.302-9.458-35.257-14.873-55.507-14.873c-61.177,0-110.552,49.379-110.552,110.552
			C50.668,851.819,100.044,901.199,161.22,901.199z M1257.117,106.805c29.712,0,53.746,24.034,53.746,53.746
			c0,29.712-24.034,53.746-53.746,53.746s-53.746-24.034-53.746-53.746C1203.371,130.839,1227.405,106.805,1257.117,106.805z
			 M722.712,641.206c29.712,0,53.746,24.034,53.746,53.746c0,29.712-24.03,53.746-53.746,53.746
			c-29.712,0-53.746-24.034-53.746-53.746C668.966,665.24,693,641.206,722.712,641.206z M489.813,408.308
			c29.712,0,53.746,24.034,53.746,53.746c0,29.712-24.034,53.746-53.746,53.746c-29.712,0-53.746-24.034-53.746-53.746
			C436.068,432.342,460.101,408.308,489.813,408.308z M161.22,736.9c29.712,0,53.746,24.034,53.746,53.746
			c0,29.712-24.034,53.746-53.746,53.746c-29.712,0-53.746-24.034-53.746-53.746C107.475,760.935,131.509,736.9,161.22,736.9z
			 M1285.518,516.672h-56.806v793.521H765.098V927.851h-56.806v382.343H518.219V763.118h-56.807v547.076H189.621v-300.192h-56.806
			v300.192H51.541V1367h1315.252v-56.806h-81.275V516.672z"/>
	</g>
</g>
</svg>
