<?xml version="1.0" encoding="utf-8"?>
<!-- Generator: Adobe Illustrator 21.0.2, SVG Export Plug-In . SVG Version: 6.00 Build 0)  -->
<svg version="1.1" id="Слой_1" xmlns="http://www.w3.org/2000/svg" xmlns:xlink="http://www.w3.org/1999/xlink" x="0px" y="0px"
	 viewBox="0 0 1417.32 1417.32" style="enable-background:new 0 0 1417.32 1417.32;" xml:space="preserve">
<style type="text/css">
	.st0{fill:#FFFFFF;}
	.st1{display:none;fill:#FFFFFF;}
	.st2{fill-rule:evenodd;clip-rule:evenodd;fill:#FFFFFF;}
</style>
<g>
	<path class="st0" d="M22.335,679.062h216.955c8.627,0,16.887,3.573,22.798,9.863c5.911,6.294,8.948,14.753,8.412,23.365
		l-5.879,94.061c-1.493,24.006,6.735,46.897,23.212,64.426c16.477,17.544,38.802,27.196,62.866,27.196
		c24.064,0,46.389-9.652,62.866-27.196c16.477-17.528,24.705-40.42,23.212-64.426l-5.879-94.061
		c-0.536-8.612,2.502-17.071,8.412-23.365c5.911-6.305,14.17-9.863,22.798-9.863h216.955V84.88
		c0-34.494-28.052-62.545-62.545-62.545H84.88c-34.494,0-62.546,28.051-62.546,62.545V206l60.833-3.8
		c40.819-2.537,81.344,12.048,111.167,40.053c29.807,28.005,46.909,67.537,46.909,108.446c0,40.909-17.102,80.426-46.909,108.446
		c-29.822,28.005-70.317,42.605-111.167,40.052l-60.833-3.8V679.062z M712.289,1150.17l94.06,5.879
		c24.006,1.525,46.897-6.735,64.426-23.212c17.544-16.477,27.196-38.802,27.196-62.866c0-24.064-9.651-46.389-27.196-62.866
		c-17.528-16.477-40.436-24.721-64.426-23.212l-94.06,5.879c-8.612,0.536-17.071-2.502-23.365-8.412
		c-6.305-5.911-9.863-14.17-9.863-22.798V741.607H495.397l3.8,60.833c2.553,40.834-12.048,81.344-40.053,111.167
		c-28.005,29.807-67.537,46.909-108.446,46.909s-80.441-17.102-108.446-46.909c-28.005-29.823-42.605-70.332-40.053-111.167
		l3.8-60.833H22.335v594.182c0,34.494,28.052,62.546,62.546,62.546h594.182V1181.38c0-8.628,3.573-16.887,9.863-22.798
		C695.218,1152.672,703.678,1149.666,712.289,1150.17L712.289,1150.17z M1398.335,804.153c0-34.494-28.052-62.545-62.546-62.545
		H1181.38c-8.627,0-16.887-3.573-22.798-9.863c-5.911-6.294-8.948-14.753-8.412-23.365l5.879-94.061
		c1.493-24.006-6.735-46.897-23.212-64.426c-16.477-17.544-38.802-27.196-62.866-27.196s-46.389,9.652-62.866,27.196
		c-16.477,17.528-24.706,40.42-23.212,64.426l5.879,94.061c0.535,8.612-2.502,17.071-8.412,23.365
		c-5.911,6.305-14.17,9.863-22.798,9.863H741.608v183.665l60.833-3.8c40.819-2.568,81.344,12.048,111.167,40.053
		c29.807,28.005,46.909,67.537,46.909,108.446c0,40.909-17.102,80.441-46.909,108.446c-29.822,28.005-70.332,42.589-111.167,40.052
		l-60.833-3.8v183.665h594.182c34.494,0,62.546-28.052,62.546-62.546V804.153z M1304.516,897.971"/>
</g>
</svg>
