<?xml version="1.0" encoding="utf-8"?>
<!-- Generator: Adobe Illustrator 21.0.2, SVG Export Plug-In . SVG Version: 6.00 Build 0)  -->
<svg version="1.1" id="Слой_1" xmlns="http://www.w3.org/2000/svg" xmlns:xlink="http://www.w3.org/1999/xlink" x="0px" y="0px"
	 viewBox="0 0 1417.32 1417.32" style="enable-background:new 0 0 1417.32 1417.32;" xml:space="preserve">
<style type="text/css">
	.st0{fill:#FFFFFF;}
	.st1{display:none;fill:#FFFFFF;}
	.st2{fill-rule:evenodd;clip-rule:evenodd;fill:#FFFFFF;}
</style>
<g>
	<g>
		<path class="st0" d="M1362.163,187.773H737.603V15.077h-55.521v172.697H57.499c-15.294,0-27.748,12.684-27.748,28.288v575.322
			c0,15.624,12.454,28.263,27.748,28.263h1304.665c15.339,0,27.773-12.639,27.773-28.263V216.062
			C1389.937,200.457,1377.502,187.773,1362.163,187.773z M1334.435,763.076H85.295V244.324h1249.14V763.076z M188.624,376.138
			h55.569c15.317,0,27.751-12.662,27.751-28.285c0-15.582-12.434-28.285-27.751-28.285h-55.569
			c-15.294,0-27.703,12.703-27.703,28.285C160.921,363.477,173.33,376.138,188.624,376.138z M353.112,376.138h55.566
			c15.32,0,27.773-12.662,27.773-28.285c0-15.582-12.454-28.285-27.773-28.285h-55.566c-15.32,0-27.751,12.703-27.751,28.285
			C325.361,363.477,337.792,376.138,353.112,376.138z M517.574,376.138h55.566c15.342,0,27.773-12.662,27.773-28.285
			c0-15.582-12.431-28.285-27.773-28.285h-55.566c-15.297,0-27.706,12.703-27.706,28.285
			C489.868,363.477,502.277,376.138,517.574,376.138z M682.059,376.138h55.592c15.294,0,27.748-12.662,27.748-28.285
			c0-15.582-12.454-28.285-27.748-28.285h-55.592c-15.317,0-27.751,12.703-27.751,28.285
			C654.308,363.477,666.742,376.138,682.059,376.138z M846.521,376.138h55.569c15.339,0,27.773-12.662,27.773-28.285
			c0-15.582-12.434-28.285-27.773-28.285h-55.569c-15.272,0-27.703,12.703-27.703,28.285
			C818.818,363.477,831.249,376.138,846.521,376.138z M1011.029,376.138h55.569c15.294,0,27.751-12.662,27.751-28.285
			c0-15.582-12.457-28.285-27.751-28.285h-55.569c-15.362,0-27.748,12.703-27.748,28.285
			C983.28,363.477,995.667,376.138,1011.029,376.138z M1175.491,376.138h55.547c15.339,0,27.796-12.662,27.796-28.285
			c0-15.582-12.457-28.285-27.796-28.285h-55.547c-15.294,0-27.725,12.703-27.725,28.285
			C1147.765,363.477,1160.152,376.138,1175.491,376.138z M188.624,531.976h55.569c15.317,0,27.751-12.661,27.751-28.285
			c0-15.605-12.434-28.266-27.751-28.266h-55.569c-15.294,0-27.703,12.661-27.703,28.266
			C160.921,519.314,173.33,531.976,188.624,531.976z M353.112,531.976h55.566c15.32,0,27.773-12.661,27.773-28.285
			c0-15.605-12.454-28.266-27.773-28.266h-55.566c-15.32,0-27.751,12.661-27.751,28.266
			C325.361,519.314,337.792,531.976,353.112,531.976z M517.574,531.976h55.566c15.342,0,27.773-12.661,27.773-28.285
			c0-15.605-12.431-28.266-27.773-28.266h-55.566c-15.297,0-27.706,12.661-27.706,28.266
			C489.868,519.314,502.277,531.976,517.574,531.976z M682.059,531.976h55.592c15.294,0,27.748-12.661,27.748-28.285
			c0-15.605-12.454-28.266-27.748-28.266h-55.592c-15.317,0-27.751,12.661-27.751,28.266
			C654.308,519.314,666.742,531.976,682.059,531.976z M846.521,531.976h55.569c15.339,0,27.773-12.661,27.773-28.285
			c0-15.605-12.434-28.266-27.773-28.266h-55.569c-15.272,0-27.703,12.661-27.703,28.266
			C818.818,519.314,831.249,531.976,846.521,531.976z M1011.029,531.976h55.569c15.294,0,27.751-12.661,27.751-28.285
			c0-15.605-12.457-28.266-27.751-28.266h-55.569c-15.362,0-27.748,12.661-27.748,28.266
			C983.28,519.314,995.667,531.976,1011.029,531.976z M1175.491,531.976h55.547c15.339,0,27.796-12.661,27.796-28.285
			c0-15.605-12.457-28.266-27.796-28.266h-55.547c-15.294,0-27.725,12.661-27.725,28.266
			C1147.765,519.314,1160.152,531.976,1175.491,531.976z M188.624,687.855h220.054c15.32,0,27.773-12.684,27.773-28.285
			c0-15.605-12.454-28.266-27.773-28.266H188.624c-15.294,0-27.703,12.661-27.703,28.266
			C160.921,675.171,173.33,687.855,188.624,687.855z M517.574,687.855h384.516c15.339,0,27.773-12.684,27.773-28.285
			c0-15.605-12.434-28.266-27.773-28.266H517.574c-15.297,0-27.706,12.661-27.706,28.266
			C489.868,675.171,502.277,687.855,517.574,687.855z M1011.029,687.855h220.009c15.339,0,27.796-12.684,27.796-28.285
			c0-15.605-12.457-28.266-27.796-28.266h-220.009c-15.362,0-27.748,12.661-27.748,28.266
			C983.28,675.171,995.667,687.855,1011.029,687.855z M1328.712,890.862h-245.035c-33.723,0-61.177,27.882-61.177,62.198v118.026
			c-1.9-0.173-3.801-0.256-5.723-0.256h-39.085c-33.772,0-61.248,26.814-61.248,59.789v212.536
			c0,32.953,27.476,59.789,61.248,59.789h351.02c33.771,0,61.225-27.943,61.225-62.242V953.06
			C1389.937,918.744,1362.483,890.862,1328.712,890.862z M1334.435,1340.701c0,3.135-2.585,5.672-5.723,5.672h-351.02
			c-3.756,0-5.701-2.239-5.701-3.218v-212.536c0-0.982,1.945-3.241,5.701-3.241h39.085c3.48,0,5.723,2.111,5.723,3.241v67.185
			c0,15.624,12.409,28.285,27.729,28.285c15.317,0,27.77-12.661,27.77-28.285V953.06c0-3.132,2.543-5.646,5.678-5.646h40.87v97.517
			c0,15.601,12.434,28.263,27.773,28.263c15.317,0,27.751-12.661,27.751-28.263v-97.517h52.271v97.517
			c0,15.601,12.431,28.263,27.773,28.263c15.317,0,27.773-12.661,27.773-28.263v-97.517h40.822c3.138,0,5.723,2.514,5.723,5.646
			V1340.701z M442.015,1070.83h-39.082c-1.923,0-3.823,0.083-5.7,0.256V953.06c0-34.315-27.454-62.198-61.225-62.198H90.995
			c-33.771,0-61.244,27.882-61.244,62.198v387.664c0,34.277,27.473,62.22,61.244,62.22h351.02c33.749,0,61.203-26.836,61.203-59.789
			v-212.536C503.217,1097.643,475.764,1070.83,442.015,1070.83z M447.741,1343.155c0,1.107-2.246,3.218-5.726,3.218H90.995
			c-3.157,0-5.7-2.537-5.7-5.649V953.06c0-3.132,2.543-5.646,5.7-5.646h40.848v97.517c0,15.601,12.409,28.263,27.751,28.263
			c15.362,0,27.774-12.661,27.774-28.263v-97.517h52.271v97.517c0,15.601,12.409,28.263,27.748,28.263
			c15.32,0,27.751-12.661,27.751-28.263v-97.517h40.87c3.138,0,5.7,2.514,5.7,5.646v244.744c0,15.624,12.434,28.285,27.751,28.285
			c15.339,0,27.774-12.661,27.774-28.285v-67.185c0-1.129,2.198-3.218,5.7-3.218h39.082c3.48,0,5.726,2.089,5.726,3.218V1343.155z"
			/>
	</g>
</g>
</svg>
