<?xml version="1.0" encoding="utf-8"?>
<!-- Generator: Adobe Illustrator 21.0.2, SVG Export Plug-In . SVG Version: 6.00 Build 0)  -->
<svg version="1.1" id="Слой_1" xmlns="http://www.w3.org/2000/svg" xmlns:xlink="http://www.w3.org/1999/xlink" x="0px" y="0px"
	 viewBox="0 0 1417.32 1417.32" style="enable-background:new 0 0 1417.32 1417.32;" xml:space="preserve">
<style type="text/css">
	.st0{fill:#FFFFFF;}
	.st1{display:none;fill:#FFFFFF;}
	.st2{fill-rule:evenodd;clip-rule:evenodd;fill:#FFFFFF;}
</style>
<g>
	<path class="st0" d="M1394.859,229.782c0-81.92-64.208-146.128-146.128-146.128H168.269c-81.92,0-146.128,64.208-146.128,146.128
		v681.931c0,81.92,64.208,146.128,146.128,146.128h391.889l-33.211,154.984H376.391c-13.284,0-22.141,8.856-22.141,22.141v88.563
		c0,13.284,8.856,22.141,22.141,22.141h664.219c13.284,0,22.141-8.856,22.141-22.141v-88.563c0-13.284-8.856-22.141-22.141-22.141
		H892.267l-33.211-154.984h391.889c79.706,0,146.128-64.208,146.128-146.128V229.782H1394.859z M168.269,127.935h1080.462
		c55.352,0,101.847,46.495,101.847,101.847l0,0v562.372H66.422V229.782C66.422,174.431,112.917,127.935,168.269,127.935
		L168.269,127.935z M1018.469,1301.388H398.531v-44.281h619.938V1301.388z M845.772,1212.826H571.228l33.211-154.984h208.122
		L845.772,1212.826z M1248.731,1013.56H168.269c-55.352,0-101.847-46.495-101.847-101.847l0,0v-75.278h1284.156v75.278
		C1350.578,967.065,1304.083,1013.56,1248.731,1013.56L1248.731,1013.56z"/>
	<circle class="st0" cx="708.5" cy="924.998" r="44.281"/>
	<rect x="1040.609" y="216.498" class="st0" width="44.281" height="44.281"/>
	<rect x="1129.172" y="216.498" class="st0" width="44.281" height="44.281"/>
	<rect x="1217.734" y="216.498" class="st0" width="44.281" height="44.281"/>
	<rect x="1129.172" y="305.06" class="st0" width="44.281" height="44.281"/>
	<rect x="1217.734" y="305.06" class="st0" width="44.281" height="44.281"/>
	<rect x="819.203" y="659.31" class="st0" width="442.813" height="44.281"/>
	<rect x="885.625" y="570.748" class="st0" width="376.391" height="44.281"/>
	<rect x="952.047" y="482.185" class="st0" width="309.969" height="44.281"/>
	<rect x="1217.734" y="393.623" class="st0" width="44.281" height="44.281"/>
	<path class="st0" d="M287.828,524.252v157.198c0,13.284,8.856,22.141,22.141,22.141h265.688c13.284,0,22.141-8.856,22.141-22.141
		v-30.997l99.633,50.923c4.428,2.214,6.642,2.214,11.07,2.214c13.284,0,22.141-8.856,22.141-22.141V415.763
		c0-6.642-4.428-15.498-11.07-19.927c-6.642-4.428-15.498-4.428-22.141,0l-99.633,50.923v-30.997
		c0-13.284-8.856-22.141-22.141-22.141H462.739c2.214-6.642,2.214-15.498,2.214-22.141c0-86.348-68.636-154.984-154.984-154.984
		s-154.984,68.636-154.984,154.984C154.984,448.974,212.55,513.182,287.828,524.252z M686.359,451.188v194.838l-88.563-44.281
		V495.47L686.359,451.188z M553.516,579.604l-61.994-30.997l61.994-30.997V579.604z M553.516,437.904v30.997l-121.773,59.78
		c-6.642,4.428-11.07,11.07-11.07,19.927c0,8.856,4.428,15.498,11.07,19.927l121.773,59.78v30.997H332.109V524.252
		c50.923-6.642,95.205-39.853,117.345-86.348H553.516z M332.109,479.971v-42.067h66.422
		C383.033,460.045,358.678,475.543,332.109,479.971z M309.969,260.779c61.994,0,110.703,48.709,110.703,110.703
		c0,6.642,0,15.498-2.214,22.141H309.969c-13.284,0-22.141,8.856-22.141,22.141v64.208c-59.78-11.07-99.633-70.85-86.348-130.63
		C212.55,298.418,256.831,260.779,309.969,260.779z"/>
	<rect x="1372.719" y="17.232" class="st1" width="44.281" height="44.281"/>
	<rect y="17.232" class="st1" width="44.281" height="44.281"/>
	<rect y="1301.388" class="st1" width="44.281" height="44.281"/>
	<rect y="1212.826" class="st1" width="44.281" height="44.281"/>
	<rect x="88.563" y="1301.388" class="st1" width="44.281" height="44.281"/>
	<rect x="1372.719" y="1301.388" class="st1" width="44.281" height="44.281"/>
	<rect x="1284.156" y="1301.388" class="st1" width="44.281" height="44.281"/>
	<rect x="1372.719" y="1212.826" class="st1" width="44.281" height="44.281"/>
</g>
</svg>
