<?xml version="1.0" encoding="utf-8"?>
<!-- Generator: Adobe Illustrator 21.0.2, SVG Export Plug-In . SVG Version: 6.00 Build 0)  -->
<svg version="1.1" id="Слой_1" xmlns="http://www.w3.org/2000/svg" xmlns:xlink="http://www.w3.org/1999/xlink" x="0px" y="0px"
	 viewBox="0 0 1417.32 1417.32" style="enable-background:new 0 0 1417.32 1417.32;" xml:space="preserve">
<style type="text/css">
	.st0{fill:#FFFFFF;}
	.st1{display:none;fill:#FFFFFF;}
	.st2{fill-rule:evenodd;clip-rule:evenodd;fill:#FFFFFF;}
</style>
<g>
	<g>
		<path class="st2" d="M472.079,995.282c100.532,0,217.634-47.738,316.814-121.455c-82.633,55.139-175.795,89.853-256.875,89.853
			c-98.875,0-155.533-51.555-158.973-128.932h-78.292C290.853,930.313,354.778,995.282,472.079,995.282z M816.284,426.22
			c-95.646,0-206.288,43.208-302.239,110.989l31.418,37.009c90.937-70.367,200.353-116.397,293.796-116.397
			c81.102,0,133.797,34.715,152.021,89.843C978.224,473.969,916.816,426.22,816.284,426.22z M913.681,364.278
			c-120.174,0-260.167,57.071-378.779,145.333c98.834-65.994,210.18-107.445,307.156-107.445
			c129.864,0,198.759,74.341,189.405,182.47h91.641C1142.378,455.02,1065.231,364.278,913.681,364.278z M472.561,1015.012
			c-97.009,0-159.917-41.451-181.74-107.445c15.593,88.262,88.999,145.323,209.224,145.323
			c117.197,0,253.225-54.308,369.897-138.879l-36.839-45.561C722.661,956.799,587.513,1015.012,472.561,1015.012z M693.729,818.465
			c12.143,0,21.98-9.85,21.98-21.986c0-12.134-9.837-21.974-21.98-21.974H473.966c-12.143,0-21.98,9.84-21.98,21.974
			c0,12.136,9.837,21.986,21.98,21.986H693.729z M957.452,686.604H473.966c-12.143,0-21.98,9.831-21.98,21.965
			c0,12.145,9.837,21.986,21.98,21.986h483.486c12.133,0,21.978-9.841,21.978-21.986
			C979.43,696.435,969.584,686.604,957.452,686.604z M957.452,598.694H737.677c-12.133,0-21.968,9.84-21.968,21.975
			c0,12.134,9.835,21.975,21.968,21.975h219.775c12.133,0,21.978-9.841,21.978-21.975
			C979.43,608.533,969.584,598.694,957.452,598.694z"/>
	</g>
</g>
</svg>
