<?xml version="1.0" encoding="utf-8"?>
<!-- Generator: Adobe Illustrator 21.0.2, SVG Export Plug-In . SVG Version: 6.00 Build 0)  -->
<svg version="1.1" id="Слой_1" xmlns="http://www.w3.org/2000/svg" xmlns:xlink="http://www.w3.org/1999/xlink" x="0px" y="0px"
	 viewBox="0 0 1417.32 1417.32" style="enable-background:new 0 0 1417.32 1417.32;" xml:space="preserve">
<style type="text/css">
	.st0{fill:#FFFFFF;}
	.st1{display:none;fill:#FFFFFF;}
	.st2{fill-rule:evenodd;clip-rule:evenodd;fill:#FFFFFF;}
</style>
<g>
	<g>
		<path class="st0" d="M1373.339,1019.825h-70.193V324.364c0-59.303-48.195-107.544-107.436-107.544h-974.1
			c-59.244,0-107.436,48.244-107.436,107.544v695.461H43.981c-11.866,0-21.488,9.627-21.488,21.51v51.622
			c0,59.303,48.195,107.544,107.436,107.544h177.629c11.866,0,21.488-9.627,21.488-21.51c0-11.881-9.62-21.51-21.488-21.51H129.929
			c-35.547,0-64.462-28.947-64.462-64.527v-30.112h484.185v53.057c0,11.88,9.62,21.51,21.488,21.51H846.18
			c11.866,0,21.488-9.627,21.488-21.51v-53.057h484.185v30.112c0,35.58-28.916,64.527-64.462,64.527h-888.15
			c-11.866,0-21.488,9.627-21.488,21.51c0,11.88,9.62,21.51,21.488,21.51h888.15c59.244,0,107.436-48.244,107.436-107.544v-51.622
			C1394.827,1029.451,1385.208,1019.825,1373.339,1019.825z M824.692,1094.389H592.628v-31.547h232.064V1094.389z M1260.172,354.478
			h-81.654c-11.866,0-21.488,9.627-21.488,21.51c0,11.881,9.62,21.51,21.488,21.51h81.654v622.329H157.148V397.498h923.962
			c11.866,0,21.488-9.627,21.488-21.51c0-11.88-9.62-21.51-21.488-21.51H157.148v-30.112c0-35.58,28.916-64.527,64.462-64.527h974.1
			c35.547,0,64.462,28.947,64.462,64.527V354.478z M754.499,285.648h-91.681c-11.866,0-21.488,9.627-21.488,21.51
			c0,11.883,9.62,21.51,21.488,21.51h91.681c11.866,0,21.488-9.627,21.488-21.51C775.988,295.274,766.368,285.648,754.499,285.648z
			 M892.02,447.684H788.88c-11.866,0-21.488,9.627-21.488,21.51v31.947l-245.897,89.938H396.373
			c-35.547,0-64.462,28.947-64.462,64.527v97.507c0,35.58,28.916,64.527,64.462,64.527h21.373l41.173,133.948
			c2.774,9.023,11.105,15.183,20.537,15.183h34.381c11.866,0,21.488-9.627,21.488-21.51V822.7l232.064,84.878v31.947
			c0,11.88,9.62,21.51,21.488,21.51h103.14c11.866,0,21.488-9.627,21.488-21.51V469.191
			C913.508,457.311,903.888,447.684,892.02,447.684z M492.354,914.062l-29.639-96.423h29.639V914.062z M503.81,774.622H396.373
			c-11.85,0-21.488-9.648-21.488-21.51v-97.507c0-11.862,9.638-21.51,21.488-21.51H503.81V774.622z M767.392,861.775
			l-220.605-80.684V627.624l220.605-80.684V861.775z M870.534,918.014h-60.166V490.701h60.166V918.014z M1069.651,682.849h-80.22
			c-11.866,0-21.488,9.627-21.488,21.51c0,11.88,9.62,21.51,21.488,21.51h80.22c11.866,0,21.488-9.627,21.488-21.51
			C1091.137,692.476,1081.517,682.849,1069.651,682.849z M989.442,588.211c4.851,0,9.73-1.634,13.742-4.985l68.759-57.358
			c9.119-7.604,10.352-21.169,2.753-30.294s-21.151-10.357-30.264-2.753l-68.759,57.358c-9.116,7.604-10.349,21.166-2.75,30.294
			C977.174,585.576,983.285,588.211,989.442,588.211z M1071.945,882.848l-68.759-57.358c-9.116-7.607-22.665-6.37-30.264,2.753
			c-7.599,9.128-6.366,22.69,2.75,30.294l68.759,57.358c4.018,3.354,8.893,4.985,13.742,4.985c6.157,0,12.268-2.635,16.519-7.738
			C1082.297,904.017,1081.061,890.454,1071.945,882.848z"/>
	</g>
</g>
</svg>
