<?xml version="1.0" encoding="utf-8"?>
<!-- Generator: Adobe Illustrator 21.0.2, SVG Export Plug-In . SVG Version: 6.00 Build 0)  -->
<svg version="1.1" id="Слой_1" xmlns="http://www.w3.org/2000/svg" xmlns:xlink="http://www.w3.org/1999/xlink" x="0px" y="0px"
	 viewBox="0 0 1417.32 1417.32" style="enable-background:new 0 0 1417.32 1417.32;" xml:space="preserve">
<style type="text/css">
	.st0{fill:#FFFFFF;}
	.st1{display:none;fill:#FFFFFF;}
	.st2{fill-rule:evenodd;clip-rule:evenodd;fill:#FFFFFF;}
</style>
<g>
	<g>
		<path class="st0" d="M366.334,703.73l95.121-237.418l112.046,503.759c3.375,15.186,16.654,26.115,32.198,26.592h0.996
			c15.135,0,28.481-10.004,32.653-24.6L745.166,602.3l33.194,99.576c4.644,13.849,17.65,23.197,32.265,23.197h271.904
			c18.784,0,33.988-15.185,33.988-33.946c0.003-18.768-15.202-33.951-33.986-33.951H835.122l-60.204-180.479
			c-4.713-14.122-18.399-25.255-32.99-23.197c-14.931,0.34-27.87,10.274-31.925,24.6l-99.176,346.612L503.946,344.308
			c-3.263-14.528-15.589-25.255-30.475-26.454c-14.795-0.994-28.754,7.354-34.259,21.206L311.757,657.179H62.89
			c-18.784,0-33.988,15.185-33.988,33.946c0,18.76,15.204,33.946,33.988,33.946h271.904
			C348.66,725.092,361.215,716.653,366.334,703.73z M1268.967,200.465c-79.644-79.545-184.032-119.307-288.399-119.307
			c-97.66,0-194.526,36.232-271.905,105.866C631.26,117.39,534.418,81.158,436.758,81.158c-104.388,0-208.756,39.762-288.399,119.31
			C42.747,305.97,8.735,454.564,43.2,589.351h70.695c-36.253-116.615-9.766-248.689,82.522-340.863
			c64.193-64.113,149.548-99.417,240.341-99.417c82.862,0,160.379,30.666,222.237,84.571l49.668,46.371l49.692-46.392
			c61.858-53.884,139.375-84.571,222.213-84.571c90.793,0,176.127,35.304,240.34,99.417c132.53,132.344,132.509,347.721,0,480.065
			L708.663,1240.14L260.995,793.026h-96.141l543.809,543.135l560.304-559.61C1428.235,617.459,1428.235,359.56,1268.967,200.465z"/>
	</g>
</g>
</svg>
