<?xml version="1.0" encoding="utf-8"?>
<!-- Generator: Adobe Illustrator 21.0.2, SVG Export Plug-In . SVG Version: 6.00 Build 0)  -->
<svg version="1.1" id="Слой_1" xmlns="http://www.w3.org/2000/svg" xmlns:xlink="http://www.w3.org/1999/xlink" x="0px" y="0px"
	 viewBox="0 0 1417.32 1417.32" style="enable-background:new 0 0 1417.32 1417.32;" xml:space="preserve">
<style type="text/css">
	.st0{fill:#FFFFFF;}
	.st1{display:none;fill:#FFFFFF;}
	.st2{fill-rule:evenodd;clip-rule:evenodd;fill:#FFFFFF;}
</style>
<g transform="translate(1 1)">
	<path class="st0" d="M504.223,1264.747H196.494V864.699l8.206-6.155c8.206-6.155,180.535-137.453,279.008-63.597
		c32.824,24.618,73.855,36.927,116.937,36.927h80.01c59.494,0,114.886,28.721,147.71,75.907
		c18.464,26.67,22.567,49.237,12.309,67.701c51.288,0,106.68-4.103,131.298-18.464l176.432-108.731
		c90.267-47.185,127.195-47.185,164.122,2.052c18.464,24.618,14.361,61.546-10.258,82.061l0,0l-309.781,246.184
		c-20.515,18.464-43.082,30.773-67.701,34.876c-8.206,2.052-18.464,4.103-28.721,4.103l-266.699,41.031
		C588.336,1260.644,545.254,1264.747,504.223,1264.747z M237.524,1223.717h266.699c38.979,0,80.01-2.052,118.989-8.206
		l270.802-41.031c8.206,0,14.361,0,22.567-2.052c18.464-2.051,34.876-10.258,47.185-24.618l2.052-2.052l311.833-242.081
		c8.206-6.155,8.206-18.464,4.103-24.618c-16.412-24.618-24.618-34.876-110.783,8.206L994.539,995.997
		c-47.185,24.618-137.453,26.67-233.874,24.618c-4.103,0-8.206,0-10.258,0c-12.309,0-20.515,0-26.67,0l2.052-41.031
		c6.155,0,14.361,0,22.567,0c26.67-2.052,51.288-6.155,57.443-16.412c2.051-4.103,0-16.412-8.206-28.721
		c-26.67-38.979-69.752-59.494-116.937-59.494h-80.01c-53.34,0-102.576-16.412-141.556-45.134
		c-57.443-45.134-172.328,20.515-221.565,55.391L237.524,1223.717z M1289.959,920.09L1289.959,920.09L1289.959,920.09z"/>
	<path class="st0" d="M237.524,1326.293H93.917V792.895h143.607V1326.293z M134.948,1285.263h61.546V833.926h-61.546V1285.263z"/>
	<path class="st0" d="M450.883,1082.161c-12.309,0-20.515-8.206-20.515-20.515c0-51.288,38.979-82.061,102.576-82.061h198.998
		c12.309,0,20.515,8.206,20.515,20.515s-8.206,20.515-20.515,20.515H532.945c-61.546,0-61.546,30.773-61.546,41.031
		C471.399,1073.955,463.193,1082.161,450.883,1082.161z"/>
	<path class="st0" d="M879.653,794.947c-14.361,0-28.721-6.155-41.031-16.412L643.727,583.639
		c-16.412-16.412-28.721-38.979-30.773-61.546l-22.567-153.865c-4.103-22.567,4.103-47.185,20.515-61.546
		c16.412-16.412,38.979-22.567,61.546-20.515l153.865,22.567c22.567,4.103,45.134,14.361,61.546,30.773l194.895,194.895
		c10.258,10.258,16.412,22.567,16.412,36.928s-4.103,28.721-14.361,38.979L914.529,780.586
		C904.272,790.844,891.962,794.947,879.653,794.947z M658.088,325.147c-8.206,0-16.412,2.052-20.515,8.206
		c-6.155,6.155-10.258,16.412-8.206,26.67l22.567,153.865c2.052,14.361,10.258,28.721,20.515,38.979l194.895,194.895
		c6.155,6.155,14.361,6.155,18.464,2.052l170.277-170.277c2.052-2.052,2.052-4.103,2.052-6.155c0-4.103-2.052-8.206-4.103-10.258
		L859.138,368.229c-10.258-10.258-24.618-18.464-38.979-20.515l-153.865-22.567C662.191,325.147,660.14,325.147,658.088,325.147z"/>
	<path class="st0" d="M873.499,690.319c-6.155,0-10.258-2.052-14.361-6.155c-8.206-8.206-8.206-20.515,0-28.721l61.546-61.546
		c8.206-8.206,20.515-8.206,28.721,0c8.206,8.206,8.206,20.515,0,28.721l-61.546,61.546
		C883.756,688.267,879.653,690.319,873.499,690.319z"/>
	<path class="st0" d="M811.953,628.773c-6.155,0-10.258-2.052-14.361-6.155c-8.206-8.206-8.206-20.515,0-28.721l61.546-61.546
		c8.206-8.206,20.515-8.206,28.721,0c8.206,8.206,8.206,20.515,0,28.721l-61.546,61.546
		C822.21,626.721,818.107,628.773,811.953,628.773z"/>
	<path class="st0" d="M750.407,444.135c-90.267,0-164.122-73.855-164.122-164.122c0-24.618,6.155-49.237,16.412-69.752
		c4.103-10.258,16.412-14.361,26.67-10.258c10.258,4.103,14.361,16.412,10.258,26.67c-8.206,16.412-12.309,34.876-12.309,53.34
		c0,67.7,55.391,123.092,123.092,123.092c12.309,0,20.515,8.206,20.515,20.515C770.922,435.929,762.716,444.135,750.407,444.135z"/>
	<path class="st0" d="M606.8,423.62c-90.267,0-164.122-73.855-164.122-164.122S516.532,95.375,606.8,95.375
		s164.122,73.855,164.122,164.122c0,22.567-4.103,43.082-12.309,63.597c-4.103,8.206-12.309,14.361-22.567,12.309l-71.804-10.258
		c-10.258-2.052-20.515,2.052-26.67,8.206c-6.155,6.155-10.258,16.412-8.206,26.67l0,0l6.155,38.979c0,6.155,0,12.309-4.103,16.412
		c-4.103,4.103-10.258,8.206-16.412,8.206h-2.052C610.903,423.62,608.851,423.62,606.8,423.62z M606.8,136.406
		c-67.701,0-123.092,55.391-123.092,123.092c0,61.546,47.185,114.886,106.68,121.04l-2.052-14.361
		c-4.103-22.567,4.103-47.185,20.515-61.546c16.412-16.412,38.979-22.567,61.546-20.515l55.391,8.206
		c2.051-10.258,4.103-20.515,4.103-32.824C729.892,191.797,674.5,136.406,606.8,136.406z"/>
	<path class="st0" d="M873.499,374.383c-6.155,0-10.258-2.052-14.361-6.155c-12.309-12.309-24.618-18.464-38.979-20.515
		l-82.061-12.309c-6.155,0-12.309-4.103-14.361-10.258c-4.103-6.155-4.103-12.309,0-18.464c2.052-14.361,6.155-30.773,6.155-47.185
		c0-36.928-16.412-71.804-47.185-96.422c-6.155-4.103-8.206-12.309-8.206-18.464c2.052-8.206,6.155-14.361,14.361-16.412
		c20.515-8.206,41.031-12.309,61.546-12.309c90.267,0,164.122,73.855,164.122,164.122c0,30.773-8.206,59.494-24.618,86.164
		C885.808,372.332,881.705,374.383,873.499,374.383L873.499,374.383z M766.819,298.477l59.494,8.206
		c14.361,2.052,28.721,8.206,41.031,14.361c4.103-12.309,6.155-26.67,6.155-41.031c0-67.701-55.391-123.092-123.092-123.092
		c-4.103,0-10.258,0-14.361,0c22.567,28.721,34.876,65.649,34.876,102.576C770.922,273.858,768.871,286.167,766.819,298.477z"/>
	<path class="st0" d="M608.851,813.411c-6.155,0-10.258-2.051-14.361-6.155l-63.597-61.546c-4.103-4.103-6.155-8.206-6.155-14.361
		V388.744c0-6.155,4.103-14.361,10.258-16.412c6.155-4.103,14.361-4.103,20.515-2.052c18.464,8.206,36.928,12.309,57.443,12.309
		h2.052c10.258,0,20.515,6.155,20.515,18.464l16.412,114.886c2.052,14.361,10.258,28.721,20.515,38.979l10.258,10.258
		c4.103,4.103,6.155,8.206,6.155,14.361v49.237c0,6.155-2.052,10.258-6.155,14.361l-26.67,26.67l26.67,26.67
		c4.103,4.103,6.155,8.206,6.155,14.361v20.515c0,6.155-2.052,10.258-6.155,14.361l-59.494,61.546
		C619.109,811.359,612.954,813.411,608.851,813.411L608.851,813.411z M565.769,723.143l41.031,41.031l41.031-41.031v-4.103
		l-34.876-34.876c-8.206-8.206-8.206-20.515,0-28.721l34.876-34.876v-32.824l-4.103-4.103
		c-16.412-16.412-28.721-38.979-30.773-61.546l-16.412-98.473c-10.258,0-20.515-2.052-30.773-4.103V723.143z"/>
</g>
</svg>
