<?xml version="1.0" encoding="utf-8"?>
<!-- Generator: Adobe Illustrator 21.0.2, SVG Export Plug-In . SVG Version: 6.00 Build 0)  -->
<svg version="1.1" id="Слой_1" xmlns="http://www.w3.org/2000/svg" xmlns:xlink="http://www.w3.org/1999/xlink" x="0px" y="0px"
	 viewBox="0 0 1417.32 1417.32" style="enable-background:new 0 0 1417.32 1417.32;" xml:space="preserve">
<style type="text/css">
	.st0{fill:#FFFFFF;}
	.st1{display:none;fill:#FFFFFF;}
	.st2{fill-rule:evenodd;clip-rule:evenodd;fill:#FFFFFF;}
</style>
<g>
	<g>
		<path class="st0" d="M413.914,913.736H184.633c-89.479,0-160.54,71.143-160.54,160.623v321.309h45.866v-321.309
			c0-64.231,50.43-114.753,114.674-114.753h229.281c64.243,0,114.674,50.523,114.674,114.753v321.309h45.911v-321.309
			C574.498,984.879,503.396,913.736,413.914,913.736z M276.34,890.766h45.866c64.199,0,114.674-50.481,114.674-114.731v-68.858
			c0-64.25-50.475-114.731-114.674-114.731H276.34c-64.218,0-114.674,50.481-114.674,114.731v68.858
			C161.666,840.285,212.122,890.766,276.34,890.766z M207.555,707.177c0-38.998,29.803-68.839,68.785-68.839h45.866
			c39.004,0,68.785,29.841,68.785,68.839v68.858c0,39.02-29.781,68.839-68.785,68.839H276.34c-38.982,0-68.785-29.819-68.785-68.839
			V707.177z M138.722,1395.667h45.911v-252.473h-45.911V1395.667z M413.914,1395.667h45.911v-252.473h-45.911V1395.667z
			 M1397.757,264.266v-2.307c-2.317-2.304-2.317-4.589-4.567-6.872L1163.842,25.583c-2.295-2.307-4.59-2.307-6.862-4.589h-2.295
			c-2.317,0-4.612-2.327-6.903-2.327H230.499c-13.765,0-22.944,9.198-22.944,22.989v458.962h45.841V64.581h871.464v206.578
			c0,13.765,9.154,22.925,22.922,22.925h206.426v160.664h45.866V271.159C1400.073,268.833,1400.073,266.548,1397.757,264.266z
			 M1170.723,248.212V96.727l151.409,151.485H1170.723z M1400.073,730.143c0-176.714-144.458-321.309-321.08-321.309
			c-176.578,0-321.055,144.594-321.055,321.309c0,142.287,96.341,268.482,229.325,307.521v82.604h-45.844
			c-13.765,0-22.967,9.179-22.967,22.925v206.559H666.206v45.914h710.924c13.765,0,22.944-9.16,22.944-22.925v-367.223h-45.866
			v344.234h-114.652v-206.559c0-13.746-9.201-22.925-22.967-22.925h-45.866v-82.604
			C1303.755,998.626,1400.073,872.43,1400.073,730.143z M1193.645,1166.183v183.57H964.342v-22.948h114.652v-45.914H964.342v-45.87
			h114.652v-45.892H964.342v-22.948H1193.645z M1143.192,996.34c-11.426,2.285-18.333,11.461-18.333,22.966v100.962h-91.707
			v-100.962c0-11.505-6.884-20.681-18.38-22.966c-121.533-27.537-210.971-140.002-210.971-266.197
			c0-151.485,123.853-275.395,275.192-275.395c151.361,0,275.214,123.91,275.214,275.395
			C1354.207,856.339,1264.75,968.803,1143.192,996.34z M1078.993,500.618c-126.122,0-229.325,103.311-229.325,229.525
			c0,126.195,103.203,229.462,229.325,229.462c126.148,0,229.351-103.267,229.351-229.462
			C1308.344,603.929,1205.141,500.618,1078.993,500.618z M1078.993,913.736c-100.886,0-183.459-82.608-183.459-183.592
			s82.573-183.611,183.459-183.611c100.931,0,183.484,82.627,183.484,183.611S1179.924,913.736,1078.993,913.736z M322.206,133.462
			v45.892h45.889v-45.892H322.206z M322.206,271.159H689.15v-45.936H322.206V271.159z M413.914,133.462v45.892h45.911v-45.892
			H413.914z M505.669,133.462v45.892h45.885v-45.892H505.669z M322.206,408.835h45.889v-45.892h-45.889V408.835z M459.824,408.835
			v-45.892h-45.911v45.892H459.824z M551.554,408.835v-45.892h-45.885v45.892H551.554z M322.206,500.618h45.889v-45.87h-45.889
			V500.618z M413.914,500.618h229.351v-45.87H413.914V500.618z M597.42,408.835h45.844v-45.892H597.42V408.835z M1056.071,753.091
			h45.866v-45.914h-45.866V753.091z M1056.071,661.307h45.866v-45.914h-45.866V661.307z M1056.071,844.874h45.866v-45.892h-45.866
			V844.874z M964.342,753.091h45.866v-45.914h-45.866V753.091z M1147.782,753.091h45.863v-45.914h-45.863V753.091z"/>
	</g>
</g>
</svg>
