<?xml version="1.0" encoding="utf-8"?>
<!-- Generator: Adobe Illustrator 21.0.2, SVG Export Plug-In . SVG Version: 6.00 Build 0)  -->
<svg version="1.1" id="Слой_1" xmlns="http://www.w3.org/2000/svg" xmlns:xlink="http://www.w3.org/1999/xlink" x="0px" y="0px"
	 viewBox="0 0 1417.32 1417.32" style="enable-background:new 0 0 1417.32 1417.32;" xml:space="preserve">
<style type="text/css">
	.st0{fill:#FFFFFF;}
	.st1{display:none;fill:#FFFFFF;}
	.st2{fill-rule:evenodd;clip-rule:evenodd;fill:#FFFFFF;}
</style>
<g>
	<g>
		<path class="st0" d="M1255.509,1010.87c-0.142-0.066-0.666-0.283-0.812-0.346c-17.383-7.111-169.857-74.78-171.46-259.215
			c-1.486-149.845,114.385-229.195,137.623-243.577l1.084-0.676c2.516-1.621,4.271-4.192,4.865-7.133
			c0.595-2.935-0.027-5.991-1.713-8.461c-79.98-117.091-202.565-134.738-251.918-136.861c-7.163-0.715-14.555-1.075-21.979-1.075
			c-57.967,0-113.495,21.902-158.107,39.499c-30.796,12.148-57.395,22.639-75.74,22.639c-20.615,0-47.364-10.62-78.342-22.914
			c-41.423-16.448-88.376-35.085-138.08-35.085c-1.185,0-2.353,0.014-3.503,0.036c-115.57,1.702-224.773,67.847-284.978,172.599
			c-114.481,198.744-41.703,500.344,84.896,683.217c63.193,91.428,127.171,173.496,214.801,173.496c1.651,0,3.308-0.031,5.004-0.097
			c41.171-1.644,70.922-14.324,99.688-26.58c32.295-13.769,65.696-28.004,118.088-28.004c49.842,0,81.65,13.774,112.409,27.089
			c30.315,13.12,61.541,26.694,107.68,25.829c98.707-1.839,159.311-90.398,212.78-168.521
			c55.796-81.572,83.785-160.771,93.229-191.037l0.382-1.204C1263.204,1019.111,1260.665,1013.238,1255.509,1010.87z
			 M705.972,361.558c4.724,0.369,9.546,0.555,14.35,0.56c68.432,0,142.253-37.875,192.667-98.858
			c53.062-64.396,79.893-147.037,71.776-221.062c-0.64-5.801-5.741-10.109-11.487-9.882
			c-69.984,2.852-153.938,45.949-204.118,104.747c-42.645,49.422-84.304,131.824-73.33,214.883
			C696.52,357.143,700.747,361.153,705.972,361.558z"/>
	</g>
</g>
</svg>
