<?xml version="1.0" encoding="utf-8"?>
<!-- Generator: Adobe Illustrator 21.0.2, SVG Export Plug-In . SVG Version: 6.00 Build 0)  -->
<svg version="1.1" id="Слой_1" xmlns="http://www.w3.org/2000/svg" xmlns:xlink="http://www.w3.org/1999/xlink" x="0px" y="0px"
	 viewBox="0 0 1417.32 1417.32" style="enable-background:new 0 0 1417.32 1417.32;" xml:space="preserve">
<style type="text/css">
	.st0{fill:#FFFFFF;}
	.st1{display:none;fill:#FFFFFF;}
	.st2{fill-rule:evenodd;clip-rule:evenodd;fill:#FFFFFF;}
</style>
<path class="st0" d="M918.416,835.745c-26.532,0-50.265,10.784-68.365,27.82l-249.08-150.331c1.816-8.334,3.199-16.726,3.199-25.384
	c0-8.674-1.416-17.022-3.199-25.384l246.281-148.922c18.782,18.061,43.614,29.34,71.164,29.34
	c58.049,0,104.833-48.472,104.833-108.703c0-60.124-46.8-108.705-104.833-108.705c-57.966,0-104.766,48.581-104.766,108.673
	c0,8.783,1.418,17.022,3.186,25.37L570.571,608.563c-18.817-18.14-43.633-29.373-71.199-29.373
	c-58.049,0-104.833,48.535-104.833,108.659c0,60.122,46.784,108.703,104.833,108.703c27.549,0,52.382-11.296,71.166-29.326
	l248.647,150.66c-1.716,7.68-2.766,15.671-2.766,23.647c0,58.354,45.815,105.802,101.964,105.802
	c56.2,0,102.067-47.431,102.067-105.802C1020.45,883.146,974.616,835.745,918.416,835.745z"/>
</svg>
