<?xml version="1.0" encoding="utf-8"?>
<!-- Generator: Adobe Illustrator 21.0.2, SVG Export Plug-In . SVG Version: 6.00 Build 0)  -->
<svg version="1.1" id="Слой_1" xmlns="http://www.w3.org/2000/svg" xmlns:xlink="http://www.w3.org/1999/xlink" x="0px" y="0px"
	 viewBox="0 0 1417.32 1417.32" style="enable-background:new 0 0 1417.32 1417.32;" xml:space="preserve">
<style type="text/css">
	.st0{fill:#FFFFFF;}
	.st1{display:none;fill:#FFFFFF;}
	.st2{fill-rule:evenodd;clip-rule:evenodd;fill:#FFFFFF;}
</style>
<g>
	<g>
		<path class="st0" d="M1351.998,142.782c0.234-21.958-8.496-43.421-23.955-58.882c-15.45-15.451-36.044-23.961-57.991-23.961
			c-22.077,0-42.523,8.648-57.569,24.351l-56.487,58.971l-23.248,24.621L889.022,93.62c-8.995-2.741-18.761-0.3-25.408,6.35
			l-51.724,51.73c-5.532,5.533-8.214,13.305-7.265,21.073c0.947,7.77,5.412,14.67,12.112,18.714l185.781,112.139l-36.591,38.433
			c-99.188-76.384-221.578-118.204-347.286-118.204c-152.111,0-295.119,59.246-402.679,166.825
			C108.403,498.257,49.167,641.288,49.167,793.426c0,152.14,59.235,295.173,166.795,402.752
			c107.56,107.579,250.568,166.825,402.679,166.825c152.111,0,295.116-59.246,402.676-166.825
			c107.56-107.579,166.795-250.612,166.795-402.752c0-33.312-2.939-66.39-8.675-98.87c-0.148-1.743-0.463-3.454-0.954-5.108
			c-16.408-88.211-53.482-171.823-108.55-243.364l38.426-36.6l112.115,185.813c4.043,6.701,10.942,11.167,18.71,12.114
			c7.746,0.929,15.535-1.733,21.067-7.266l51.727-51.73c6.636-6.635,9.082-16.385,6.364-25.369l-73.811-243.914l83.122-79.649
			C1343.12,184.663,1351.763,164.527,1351.998,142.782z M465.037,1288.873c-211.188-65.634-364.978-262.915-364.978-495.447
			c0-70.218,14.051-137.203,39.444-198.34c32.128,22.91,80.424,26.687,124.56,30.118c78.261,6.083,104.17,13.392,103.384,44.67
			c-0.712,28.359-31.255,52.074-63.594,77.181c-45.184,35.078-101.417,78.736-84.554,152.646
			c17.255,75.649,77.59,79.082,126.072,81.841c29.772,1.692,60.559,3.446,88.593,17.606c30.347,15.326,53.304,43.762,64.648,80.07
			C511.298,1119.832,515.054,1188.471,465.037,1288.873z M1137.219,793.423c0.002,179.076-91.208,337.237-229.596,430.477
			c-35.854-46.653-32.365-69.736-28.357-96.019c3.066-20.106,6.542-42.896-4.16-72.732c-10.99-30.627-35.319-63.463-76.536-103.291
			l-5.568-5.963c-26.504-28.349-47.441-50.74-51.505-73.007c-2.646-14.502-0.819-39.573,45.416-89.669
			c12.036-13.038,23.187-19.536,34.095-19.864c22.896-0.626,50.159,25.438,74.139,48.49c31.907,30.67,68.071,65.428,107.39,42.192
			c26.624-15.736,40.319-45.139,53.561-73.577c21.532-46.233,34.929-70.335,75.465-63.15
			C1135.292,742.398,1137.219,767.835,1137.219,793.423z M1121.063,665.23c-66.615-1.736-92.819,54.484-111.099,93.741
			c-10.428,22.391-20.275,43.538-33.316,51.247c-0.308,0.181-0.45,0.221-0.45,0.221c-0.046-0.015-3.7,0.262-13.313-6.533
			c-9.697-6.859-20.761-17.495-32.477-28.756c-31.207-29.993-66.475-63.998-110.926-62.669
			c-24.937,0.746-48.48,12.931-69.966,36.216c-47.594,51.57-65.508,92.693-58.085,133.342c6.751,36.972,33.464,65.545,64.399,98.63
			l5.977,6.401c0.311,0.331,0.629,0.654,0.954,0.97c75.279,72.607,71.071,100.21,66.195,132.174
			c-4.708,30.866-10.395,68.474,34.952,130.107c-73.07,39.397-156.602,61.786-245.271,61.786
			c-35.36-0.005-69.9-3.576-103.293-10.353c52.421-110.419,46.902-189.526,31.843-237.717
			c-15.484-49.557-47.548-88.738-90.282-110.324c-37.5-18.938-75.297-21.091-108.644-22.987
			c-52.459-2.988-71.027-5.876-79.345-42.347c-8.995-39.427,18.988-64.504,66.144-101.114
			c38.411-29.82,81.946-63.618,83.267-116.112c0.669-26.573-8.247-62.109-54.518-80.502c-27.36-10.873-62.154-13.578-95.799-16.192
			c-43.686-3.395-88.666-6.91-105.628-27.375c87.809-162.04,259.398-272.329,456.26-272.329
			c110.341,0,217.875,35.371,306.374,100.214l-56.487-4.064c-7.321-0.504-14.593,2.166-19.817,7.388l-43.535,43.543
			c-5.814,5.818-8.461,14.087-7.102,22.2c1.356,8.114,6.552,15.069,13.945,18.673l92.29,45.004l44.998,92.303
			c3.603,7.393,10.557,12.587,18.67,13.947c1.402,0.237,2.804,0.351,4.201,0.351c6.692,0,13.184-2.642,17.993-7.455l43.533-43.538
			c5.221-5.222,7.916-12.455,7.387-19.821l-4.064-56.502C1076.299,540.625,1104.727,601.245,1121.063,665.23z M1292.447,162.73
			l-94.397,90.453c-6.919,6.627-9.527,16.581-6.751,25.748l73.918,244.27l-17.965,17.965l-111.7-185.124
			c-3.985-6.607-10.756-11.048-18.4-12.074c-7.67-1.031-15.349,1.474-20.934,6.795l-103.623,98.699
			c-5.504,5.243-8.377,12.672-7.833,20.253l4.733,65.835l-10.084,10.086l-33.205-68.113c-2.491-5.105-6.616-9.234-11.723-11.72
			L866.388,432.6l10.084-10.089l65.823,4.734c7.552,0.519,15.008-2.329,20.252-7.834l98.677-103.641
			c5.323-5.589,7.82-13.29,6.794-20.938c-1.025-7.648-5.466-14.418-12.071-18.403L870.856,164.71l17.942-17.942l244.204,74.404
			c9.242,2.817,19.28,0.155,25.917-6.872l33.95-35.956l56.357-58.836c5.354-5.589,12.751-8.666,20.825-8.666
			c8.232,0,16.252,3.301,22.006,9.055c5.842,5.844,9.143,13.988,9.053,22.343C1301.024,150.181,1297.948,157.457,1292.447,162.73z
			 M415.423,358.039c-50.874,23.758-96.796,55.932-136.484,95.627c-9.937,9.941-9.937,26.053,0,35.994
			c4.97,4.968,11.481,7.454,17.993,7.454c6.511,0,13.026-2.486,17.993-7.454c35.482-35.493,76.539-64.257,122.026-85.498
			c12.733-5.948,18.237-21.091,12.293-33.828C443.299,357.601,428.158,352.093,415.423,358.039z M499.56,324.622
			c-14.053,0-25.446,11.394-25.446,25.45c0,14.056,11.393,25.45,25.446,25.45s25.446-11.395,25.446-25.45
			C525.006,336.017,513.613,324.622,499.56,324.622z"/>
	</g>
</g>
</svg>
