<?xml version="1.0" encoding="utf-8"?>
<!-- Generator: Adobe Illustrator 21.0.2, SVG Export Plug-In . SVG Version: 6.00 Build 0)  -->
<svg version="1.1" id="Слой_1" xmlns="http://www.w3.org/2000/svg" xmlns:xlink="http://www.w3.org/1999/xlink" x="0px" y="0px"
	 viewBox="0 0 1417.32 1417.32" style="enable-background:new 0 0 1417.32 1417.32;" xml:space="preserve">
<style type="text/css">
	.st0{fill:#FFFFFF;}
	.st1{display:none;fill:#FFFFFF;}
	.st2{fill-rule:evenodd;clip-rule:evenodd;fill:#FFFFFF;}
</style>
<g>
	<g>
		<path class="st0" d="M392.116,1047.273c0,33.493,22.317,55.82,55.793,55.82h55.797v195.241c0,44.657,38.915,83.6,83.557,83.6
			c44.63,0,83.548-38.943,83.548-83.6v-195.241h111.591v195.241c-0.005,44.652,38.918,83.595,83.553,83.595
			c44.633,0,83.556-38.943,83.556-83.6v-195.241h55.792c33.481,0,55.794-22.333,55.794-55.821V489.63H392.116V1047.273z
			 M1200.452,489.63c-44.638,0-83.556,39.143-83.556,83.564v390.478c0,44.657,38.914,83.6,83.556,83.6
			c44.635,0,83.55-38.94,83.55-83.6V573.194C1284.002,528.773,1245.087,489.63,1200.452,489.63z M252.767,489.63
			c-44.635,0-83.549,39.143-83.549,83.564v390.478c0,44.657,38.914,83.6,83.549,83.6c44.638,0,83.557-38.94,83.557-83.6V573.194
			C336.324,528.773,297.409,489.63,252.767,489.63z M1060.595,416.365c-3.854-73.635-31.947-141.6-75.98-193.811
			c-18.385-21.806-39.542-40.872-62.866-56.453l72.394-72.435c11.164-11.165,11.164-27.739,0-38.908
			c-11.154-11.231-27.761-11.231-38.914,0l-74.832,74.619l-3.453,3.45c-44.371-22.231-94.119-33.333-149.519-33.44
			c-0.272,0-0.54-0.009-0.812-0.009h-0.008c-0.282,0-0.54,0.009-0.82,0.009c-55.396,0.107-105.145,11.209-149.512,33.44l-3.461-3.45
			l-74.826-74.619c-11.163-11.231-27.76-11.231-38.914,0c-11.163,11.169-11.163,27.743,0,38.903l72.386,72.436
			c-23.325,15.581-44.474,34.647-62.867,56.454c-44.033,52.22-72.119,120.181-75.981,193.815c-0.035,0.766-0.111,1.524-0.147,2.29
			c-0.236,5.014-0.348,10.055-0.348,15.113h668.982c0-5.058-0.121-10.099-0.347-15.113
			C1060.716,417.89,1060.639,417.132,1060.595,416.365z M587.157,336.304c-23.084,0-41.797-18.722-41.797-41.817
			s18.713-41.818,41.797-41.818c23.083,0,41.796,18.723,41.796,41.818S610.24,336.304,587.157,336.304z M866.057,336.304
			c-23.083,0-41.796-18.722-41.796-41.817s18.713-41.818,41.796-41.818c23.084,0,41.798,18.723,41.798,41.818
			S889.141,336.304,866.057,336.304z"/>
	</g>
</g>
</svg>
