<?xml version="1.0" encoding="utf-8"?>
<!-- Generator: Adobe Illustrator 21.0.2, SVG Export Plug-In . SVG Version: 6.00 Build 0)  -->
<svg version="1.1" id="Слой_1" xmlns="http://www.w3.org/2000/svg" xmlns:xlink="http://www.w3.org/1999/xlink" x="0px" y="0px"
	 viewBox="0 0 1417.32 1417.32" style="enable-background:new 0 0 1417.32 1417.32;" xml:space="preserve">
<style type="text/css">
	.st0{fill:#FFFFFF;}
	.st1{display:none;fill:#FFFFFF;}
	.st2{fill-rule:evenodd;clip-rule:evenodd;fill:#FFFFFF;}
</style>
<g>
	<g>
		<path class="st0" d="M1033.909,934.255c-16.019,0-28.987,12.696-28.987,28.316v126.055H297.299V220.111h707.623v130.245
			c0,15.643,12.969,28.315,28.987,28.315s29.014-12.673,29.014-28.315V43.76c0-15.643-12.995-28.272-29.014-28.272H268.261
			c-15.995,0-29.014,12.63-29.014,28.272v1330.589c0,15.623,13.019,28.319,29.014,28.319h765.647
			c16.019,0,29.014-12.696,29.014-28.319V962.571C1062.923,946.951,1049.927,934.255,1033.909,934.255z M297.299,72.079h707.623
			v91.378H297.299V72.079z M1004.922,1346.053H297.299V1145.24h707.623V1346.053z M651.311,1286.492
			c24.206,0,43.842-19.188,43.842-42.874c0-23.62-19.636-42.807-43.842-42.807c-24.182,0-43.815,19.187-43.815,42.807
			C607.496,1267.305,627.129,1286.492,651.311,1286.492z M794.878,720.766c-5.52-14.715-22.207-22.227-37.224-16.796l-18.682,6.734
			c-2.69-4.253-5.62-8.307-8.809-12.231l12.736-14.978c10.232-11.988,8.566-29.868-3.738-39.884
			c-12.28-10.013-30.583-8.374-40.842,3.678l-12.686,14.868c-4.522-2.304-9.138-4.429-13.923-6.315l3.378-19.078
			c2.713-15.42-7.854-30.068-23.633-32.705c-15.802-2.68-30.823,7.692-33.51,23.111l-3.382,19.058
			c-5.141,0.199-10.259,0.685-15.28,1.393l-6.854-18.17c-5.497-14.688-22.207-22.223-37.248-16.793
			c-15.021,5.427-22.732,21.735-17.186,36.383l6.88,18.236c-4.333,2.68-8.5,5.537-12.497,8.639l-15.28-12.43
			c-12.281-10.016-30.607-8.376-40.843,3.658c-10.259,12.008-8.593,29.888,3.688,39.905l15.28,12.407
			c-2.401,4.389-4.569,8.932-6.471,13.607l-19.517-3.282c-15.782-2.657-30.8,7.691-33.513,23.091
			c-2.713,15.443,7.854,30.111,23.657,32.768l19.517,3.259c0.17,5.051,0.668,10.036,1.407,14.958l-18.612,6.691
			c-15.044,5.407-22.706,21.715-17.186,36.383c5.523,14.711,22.207,22.224,37.224,16.797l18.686-6.714
			c2.713,4.23,5.617,8.307,8.829,12.207l-12.733,14.978c-10.282,12.011-8.592,29.869,3.711,39.885
			c12.284,10.039,30.56,8.377,40.842-3.655l12.686-14.868c4.5,2.305,9.142,4.429,13.923,6.292l-3.402,19.078
			c-2.69,15.423,7.878,30.068,23.657,32.705c15.806,2.68,30.823-7.668,33.513-23.088l3.379-19.078
			c5.164-0.199,10.259-0.688,15.28-1.397l6.831,18.17c5.57,14.711,22.23,22.224,37.274,16.816
			c15.018-5.427,22.729-21.758,17.182-36.403l-6.876-18.236c4.329-2.68,8.473-5.54,12.493-8.643l15.28,12.43
			c12.307,10.039,30.61,8.4,40.842-3.655c10.258-12.031,8.593-29.892-3.688-39.908l-15.28-12.43
			c2.404-4.363,4.546-8.885,6.475-13.581l19.517,3.302c15.802,2.634,30.773-7.711,33.51-23.111
			c2.713-15.443-7.854-30.111-23.657-32.771l-19.517-3.279c-0.166-5.031-0.668-9.993-1.38-14.934l18.589-6.691
			C792.713,751.742,800.425,735.434,794.878,720.766z M701.388,797.609v0.02c-7.781,43.985-50.742,73.654-95.797,66.052
			c-45.032-7.555-75.353-49.545-67.595-93.593c7.785-44.005,50.719-73.674,95.797-66.075
			C678.825,711.591,709.173,753.558,701.388,797.609z M1236.049,682.388c16.018,0,29.014-12.63,29.014-28.296
			c0-15.623-12.996-28.296-29.014-28.296h-32.153c-1.832-10.435-4.596-20.541-8.307-30.244l27.893-15.732
			c13.877-7.844,18.636-25.15,10.615-38.688c-8.044-13.538-25.751-18.17-39.628-10.325l-27.893,15.732
			c-6.831-8.001-14.399-15.423-22.609-22.07l16.111-27.365c8.044-13.538,3.262-30.843-10.614-38.664
			c-13.854-7.801-31.608-3.146-39.605,10.392l-16.065,27.232c-9.899-3.588-20.255-6.292-30.87-8.044v-31.508
			c0-15.643-13.019-28.339-29.014-28.339c-16.019,0-28.987,12.696-28.987,28.339v31.508c-10.665,1.752-21.017,4.456-30.873,8.044
			l-16.088-27.232c-8.044-13.538-25.752-18.193-39.628-10.392c-13.877,7.821-18.635,25.127-10.615,38.664l16.138,27.365
			c-8.237,6.647-15.756,14.07-22.613,22.07l-27.893-15.732c-13.9-7.844-31.584-3.212-39.652,10.325
			c-8.021,13.538-3.239,30.843,10.615,38.688l27.87,15.732c-3.665,9.704-6.452,19.809-8.257,30.244h-32.18
			c-16.018,0-28.99,12.673-28.99,28.296c0,15.666,12.972,28.296,28.99,28.296h32.18c1.806,10.458,4.593,20.584,8.257,30.268
			l-27.87,15.752c-13.854,7.821-18.635,25.107-10.615,38.688c8.067,13.518,25.752,18.126,39.652,10.325l27.893-15.752
			c6.857,7.998,14.376,15.4,22.613,22.067l-16.138,27.344c-8.021,13.561-3.262,30.843,10.615,38.688
			c13.876,7.798,31.584,3.146,39.628-10.392l16.088-27.231c9.856,3.588,20.208,6.268,30.873,8.041v31.531
			c0,15.623,12.969,28.319,28.987,28.319c15.995,0,29.014-12.696,29.014-28.319v-31.531c10.615-1.772,20.97-4.453,30.87-8.041
			l16.065,27.231c7.998,13.538,25.752,18.19,39.605,10.392c13.876-7.844,18.658-25.127,10.614-38.688l-16.111-27.344
			c8.21-6.667,15.779-14.07,22.609-22.067l27.893,15.752c13.877,7.801,31.584,3.192,39.628-10.325
			c8.021-13.581,3.262-30.866-10.615-38.688l-27.893-15.752c3.711-9.684,6.475-19.809,8.307-30.268H1236.049z M1033.909,766.011
			c-63.096,0-114.456-50.187-114.456-111.919c0-61.686,51.36-111.875,114.456-111.875c63.119,0,114.482,50.19,114.482,111.875
			C1148.391,715.824,1097.028,766.011,1033.909,766.011z"/>
	</g>
</g>
</svg>
