<?xml version="1.0" encoding="utf-8"?>
<!-- Generator: Adobe Illustrator 21.0.2, SVG Export Plug-In . SVG Version: 6.00 Build 0)  -->
<svg version="1.1" id="Слой_1" xmlns="http://www.w3.org/2000/svg" xmlns:xlink="http://www.w3.org/1999/xlink" x="0px" y="0px"
	 viewBox="0 0 1417.32 1417.32" style="enable-background:new 0 0 1417.32 1417.32;" xml:space="preserve">
<style type="text/css">
	.st0{fill:#FFFFFF;}
	.st1{display:none;fill:#FFFFFF;}
	.st2{fill-rule:evenodd;clip-rule:evenodd;fill:#FFFFFF;}
</style>
<path class="st0" d="M1251.271,1274.667H175.064c-12.914,0-23.396-10.481-23.396-23.396s10.481-23.396,23.396-23.396h1076.207
	c12.914,0,23.396,10.481,23.396,23.396S1264.186,1274.667,1251.271,1274.667z"/>
<path class="st0" d="M362.231,1274.667H221.856c-12.914,0-23.396-10.481-23.396-23.396v-280.75
	c0-12.914,10.481-23.396,23.396-23.396h140.375c12.914,0,23.396,10.481,23.396,23.396v280.75
	C385.626,1264.185,375.145,1274.667,362.231,1274.667z M245.252,1227.875h93.583V993.917h-93.583V1227.875z"/>
<path class="st0" d="M642.98,1274.667H502.605c-12.914,0-23.396-10.481-23.396-23.396V736.563c0-12.914,10.481-23.396,23.396-23.396
	H642.98c12.914,0,23.396,10.481,23.396,23.396v514.708C666.376,1264.185,655.895,1274.667,642.98,1274.667z M526.001,1227.875
	h93.583V759.959h-93.583V1227.875z"/>
<path class="st0" d="M923.73,1274.667H783.355c-12.914,0-23.396-10.481-23.396-23.396V830.146c0-12.914,10.481-23.396,23.396-23.396
	H923.73c12.914,0,23.396,10.481,23.396,23.396v421.125C947.126,1264.185,936.644,1274.667,923.73,1274.667z M806.751,1227.875
	h93.583V853.542h-93.583V1227.875z"/>
<path class="st0" d="M1204.48,1274.667h-140.375c-12.914,0-23.396-10.481-23.396-23.396V549.396
	c0-12.914,10.481-23.396,23.396-23.396h140.375c12.915,0,23.396,10.481,23.396,23.396v701.874
	C1227.875,1264.185,1217.394,1274.667,1204.48,1274.667z M1087.501,1227.875h93.583V572.792h-93.583V1227.875z"/>
<path class="st0" d="M292.043,759.959c-51.611,0-93.583-41.972-93.583-93.583s41.972-93.583,93.583-93.583
	s93.583,41.972,93.583,93.583S343.654,759.959,292.043,759.959z M292.043,619.584c-25.829,0-46.792,21.009-46.792,46.792
	s20.963,46.792,46.792,46.792s46.792-21.009,46.792-46.792S317.872,619.584,292.043,619.584z"/>
<path class="st0" d="M572.793,526.001c-51.611,0-93.583-41.972-93.583-93.583s41.972-93.583,93.583-93.583
	c51.611,0,93.583,41.972,93.583,93.583S624.404,526.001,572.793,526.001z M572.793,385.626c-25.829,0-46.792,21.009-46.792,46.792
	c0,25.782,20.963,46.792,46.792,46.792c25.829,0,46.792-21.009,46.792-46.792C619.584,406.635,598.622,385.626,572.793,385.626z"/>
<path class="st0" d="M853.543,619.584c-51.611,0-93.583-41.972-93.583-93.583s41.972-93.583,93.583-93.583
	c51.611,0,93.583,41.972,93.583,93.583C947.126,577.612,905.154,619.584,853.543,619.584z M853.543,479.209
	c-25.829,0-46.792,21.009-46.792,46.792c0,25.782,20.963,46.792,46.792,46.792s46.792-21.009,46.792-46.792
	C900.334,500.218,879.372,479.209,853.543,479.209z"/>
<path class="st0" d="M1134.292,338.834c-51.611,0-93.583-41.972-93.583-93.583s41.972-93.583,93.583-93.583
	s93.583,41.972,93.583,93.583S1185.903,338.834,1134.292,338.834z M1134.292,198.459c-25.829,0-46.792,21.009-46.792,46.792
	s20.963,46.792,46.792,46.792s46.792-21.009,46.792-46.792S1160.121,198.459,1134.292,198.459z"/>
<path class="st0" d="M903.188,499.751c-5.989,0-11.979-2.293-16.564-6.832c-9.124-9.124-9.124-23.957,0-33.082l181.552-181.551
	c9.124-9.124,23.957-9.124,33.082,0c9.125,9.124,9.124,23.957,0,33.082L919.706,492.919
	C915.12,497.505,909.131,499.751,903.188,499.751z"/>
<path class="st0" d="M790.561,517.906c-2.106,0-4.258-0.281-6.41-0.889l-150.295-42.861c-12.4-3.556-19.606-16.471-16.05-28.917
	c3.509-12.447,16.283-19.746,28.87-16.096l150.295,42.861c12.447,3.556,19.652,16.517,16.096,28.917
	C810.12,511.214,800.762,517.906,790.561,517.906z"/>
<path class="st0" d="M341.642,640.172c-6.832,0-13.663-2.995-18.296-8.797c-8.095-10.107-6.41-24.8,3.697-32.895l176.404-140.656
	c10.107-8.001,24.8-6.364,32.848,3.743c8.095,10.107,6.41,24.8-3.697,32.895L356.194,635.119
	C351.89,638.488,346.743,640.172,341.642,640.172z"/>
</svg>
