<?xml version="1.0" encoding="utf-8"?>
<!-- Generator: Adobe Illustrator 21.0.2, SVG Export Plug-In . SVG Version: 6.00 Build 0)  -->
<svg version="1.1" id="Слой_1" xmlns="http://www.w3.org/2000/svg" xmlns:xlink="http://www.w3.org/1999/xlink" x="0px" y="0px"
	 viewBox="0 0 1417.32 1417.32" style="enable-background:new 0 0 1417.32 1417.32;" xml:space="preserve">
<style type="text/css">
	.st0{fill:#FFFFFF;}
	.st1{display:none;fill:#FFFFFF;}
	.st2{fill-rule:evenodd;clip-rule:evenodd;fill:#FFFFFF;}
</style>
<g>
	<path class="st0" d="M542.66,1085.16L542.66,1085.16c-42.075,0-76.5-34.425-76.5-76.5v-599c0-42.075,34.425-76.5,76.5-76.5h0
		c42.075,0,76.5,34.425,76.5,76.5v599C619.16,1050.735,584.735,1085.16,542.66,1085.16z"/>
	<path class="st0" d="M874.66,1084.16L874.66,1084.16c-42.075,0-76.5-34.425-76.5-76.5v-599c0-42.075,34.425-76.5,76.5-76.5h0
		c42.075,0,76.5,34.425,76.5,76.5v599C951.16,1049.735,916.735,1084.16,874.66,1084.16z"/>
</g>
</svg>
