<?xml version="1.0" encoding="utf-8"?>
<!-- Generator: Adobe Illustrator 21.0.2, SVG Export Plug-In . SVG Version: 6.00 Build 0)  -->
<svg version="1.1" id="Слой_1" xmlns="http://www.w3.org/2000/svg" xmlns:xlink="http://www.w3.org/1999/xlink" x="0px" y="0px"
	 viewBox="0 0 1417.32 1417.32" style="enable-background:new 0 0 1417.32 1417.32;" xml:space="preserve">
<style type="text/css">
	.st0{fill:#FFFFFF;}
	.st1{display:none;fill:#FFFFFF;}
	.st2{fill-rule:evenodd;clip-rule:evenodd;fill:#FFFFFF;}
</style>
<path class="st0" d="M714.564,477.299c-30.337-76.176-102.876-125.419-184.821-125.419c-25.173,0-49.91,4.755-73.492,14.16
	c-49.37,19.687-88.132,57.417-109.12,106.22c-20.988,48.831-21.731,102.905-2.054,152.276
	c30.285,76.203,102.829,125.443,184.769,125.443c25.201,0,49.961-4.808,73.567-14.214
	C705.268,695.19,755.125,579.229,714.564,477.299z M584.38,688.072c-17.546,6.965-35.885,10.537-54.562,10.537
	c-60.778,0-114.592-36.522-137.07-93.036c-14.565-36.65-14.05-76.744,1.542-112.978c15.568-36.21,44.338-64.198,80.942-78.77
	c17.518-6.966,35.86-10.514,54.482-10.514c60.777,0,114.592,36.522,137.118,93.036C696.918,571.931,659.954,657.923,584.38,688.072z
	 M792.808,959.932c4.676-10.898,4.828-22.951,0.436-33.899l-29.669-74.532c23.17-17.733,44.209-38.167,62.808-60.988l72.336,31.124
	c21.938,9.533,48.882-1.411,58.183-23.235l46.161-107.223c9.656-22.41-0.696-48.547-23.17-58.312l-71.001-30.532
	c4.341-30.764,4.856-61.76,1.59-92.495l71.437-28.453c11.02-4.371,19.653-12.772,24.326-23.646
	c4.671-10.873,4.855-22.949,0.487-33.975L963.525,315.23c-8.838-22.206-35.113-33.719-57.592-24.801l-71.437,28.477
	c-18.058-23.618-38.837-44.977-62.036-63.787l30.9-71.909c4.701-10.873,4.857-22.926,0.516-33.923
	c-4.369-11.026-12.766-19.687-23.686-24.39L673.052,78.761c-21.859-9.457-48.831,1.26-58.335,23.181l-30.697,71.422
	c-30.208-4.111-60.724-4.627-90.985-1.464l-29.721-74.66c-8.941-22.206-35.293-33.538-57.54-24.725l-108.481,43.229
	c-11.019,4.395-19.677,12.825-24.325,23.699c-4.649,10.873-4.805,22.95-0.412,33.899l29.669,74.608
	c-24.582,18.787-46.676,40.454-65.993,64.739L160.89,280.28c-21.835-9.457-48.782,1.283-58.259,23.206L56.526,410.761
	c-9.632,22.438,0.744,48.548,23.171,58.265l76.653,32.999c-3.749,29.22-4.109,58.544-1.051,87.561l-77.632,30.967
	c-10.996,4.395-19.653,12.773-24.326,23.67c-4.7,10.921-4.856,22.978-0.487,33.951l43.231,108.559
	c8.861,22.154,35.269,33.643,57.568,24.698l77.652-30.916c18.418,24.105,39.714,45.9,63.628,65.099l-32.599,75.74
	c-4.7,10.872-4.856,22.925-0.487,33.923c4.368,11.001,12.794,19.662,23.657,24.338l107.269,46.182
	c21.939,9.406,48.859-1.411,58.236-23.233l32.778-76.304c29.618,3.907,59.494,4.291,88.957,1.208l29.72,74.711
	c6.807,16.912,22.967,27.833,41.176,27.833c5.653,0,11.177-1.055,16.387-3.162l108.429-43.229
	C779.478,979.258,788.132,970.852,792.808,959.932z M742.923,938.497l-95.38,38.011l-42.127-105.861l-20.368,3.315
	c-36.784,6.014-75.007,5.499-112.23-1.492l-20.216-3.802l-46.005,107.119l-94.271-40.606l45.905-106.683l-16.775-12.082
	c-31.52-22.642-58.335-50.115-79.759-81.673l-11.586-17.04l-108.889,43.38l-37.967-95.375l108.864-43.38l-3.289-20.355
	c-5.936-36.598-5.524-73.964,1.259-111.027l3.697-20.123l-107.222-46.16l40.537-94.347l106.474,45.824l12.047-16.911
	c22.607-31.815,50.321-59.009,82.38-80.855l17.03-11.592l-42.103-105.832l95.351-37.986l42.128,105.808l20.344-3.291
	c37.479-6.09,76.393-5.446,114.104,1.824l20.292,3.907l44.032-102.417l94.195,40.53l-44.13,102.776l16.618,12.053
	c30.773,22.306,57.077,49.396,78.244,80.519l11.612,17.064l102.671-40.917l37.991,95.398l-102.725,40.917l3.314,20.379
	c6.242,38.241,5.575,77.104-2.003,115.474l-4.008,20.378l102.132,43.949l-40.584,94.294L809.552,727.3l-12.076,16.553
	c-22.166,30.427-48.961,56.412-79.631,77.279l-17.054,11.589L742.923,938.497z M1055.054,932.559
	c-69.742,8.865-119.291,72.836-110.455,142.637c8.042,63.584,62.396,111.538,126.332,111.538c5.343,0,10.734-0.358,16.206-1.027
	c69.742-8.918,119.293-72.912,110.455-142.662C1188.783,974.144,1125.54,923.665,1055.054,932.559z M1080.638,1134.717
	c-41.896,5.654-79.839-24.802-85.079-65.974c-5.291-41.662,24.302-79.879,65.941-85.146c3.262-0.436,6.5-0.617,9.709-0.617
	c38.119,0,70.538,28.629,75.394,66.615C1151.92,1091.18,1122.279,1129.399,1080.638,1134.717z M1363.073,987.556
	c-2.286-18.324-17.93-32.127-36.4-32.127l-41.612,4.987c-5.419-11.746-11.843-23.002-19.214-33.695l23.327-30.149
	c6.011-7.734,8.657-17.324,7.422-27.037c-1.207-9.742-6.163-18.427-13.896-24.414l-54.278-42.126
	c-15.388-11.872-39.354-8.892-51.349,6.58l-23.146,29.864c-12.534-4.68-25.406-8.199-38.506-10.614l-4.985-38.986
	c-2.363-18.272-17.982-32.024-36.348-32.024l-72.441,8.945c-9.759,1.156-18.469,6.038-24.505,13.8
	c-6.063,7.786-8.708,17.476-7.449,27.166l4.931,39.013c-12.331,5.73-24.172,12.54-35.396,20.378l-31.852-24.696
	c-15.488-11.977-39.505-8.842-51.376,6.578l-42.051,54.254c-5.984,7.762-8.607,17.398-7.348,27.14
	c1.259,9.742,6.192,18.403,13.922,24.338l32.547,25.186c-4.316,11.977-7.63,24.185-9.916,36.622l-40.921,5.191
	c-9.709,1.232-18.366,6.166-24.377,13.929c-5.984,7.734-8.629,17.322-7.398,27.012l8.63,67.979
	c2.234,18.375,17.879,32.227,36.424,32.227l45.465-5.475c5.624,12.08,12.279,23.669,19.908,34.695l-24.736,31.92
	c-6.035,7.71-8.734,17.322-7.503,27.088c1.232,9.793,6.192,18.503,13.921,24.414l54.151,41.993
	c15.388,12.08,39.557,8.992,51.504-6.45l25.045-32.356c12.203,4.472,24.686,7.891,37.399,10.229l4.933,38.937
	c2.286,18.324,17.901,32.129,36.348,32.129l72.672-8.97c9.736-1.236,18.394-6.168,24.377-13.929
	c6.011-7.762,8.629-17.4,7.373-27.061l-4.955-38.986c11.454-5.345,22.501-11.616,32.982-18.763l30.285,23.519
	c15.44,11.948,39.405,8.992,51.452-6.479l42.151-54.381c12.255-15.984,9.274-39.038-6.626-51.35l-29.617-22.978
	c4.804-12.801,8.424-25.956,10.891-39.345l37.044-4.703c9.708-1.235,18.366-6.166,24.353-13.929
	c5.984-7.761,8.629-17.346,7.398-27.061L1363.073,987.556z M1256.571,1055.331l-1.926,20.51
	c-2.003,21.458-7.782,42.276-17.159,61.886l-8.941,18.736l50.014,38.758l-23.995,30.967l-50.349-39.089l-15.846,13.028
	c-16.132,13.261-34.166,23.517-53.612,30.507l-19.42,6.967l8.193,64.303l-38.839,4.958l-8.169-64.327l-20.5-1.927
	c-20.86-1.928-41.1-7.479-60.135-16.449l-18.649-8.765l-40.666,52.505l-30.9-23.976l40.509-52.327l-13.254-15.854
	c-13.793-16.552-24.429-35.032-31.572-54.999l-6.962-19.454l-66.249,8.533l-4.933-38.962l66.301-8.43l1.876-20.559
	c1.85-20.459,7.27-40.477,16.106-59.472l8.63-18.606l-52.606-40.737l23.993-30.969l52.196,40.454l15.848-13.341
	c16.694-14.007,35.396-24.8,55.589-32.022l19.42-6.967l-8.118-64.378l38.814-5.011l8.194,64.483l20.524,1.875
	c21.115,1.928,41.639,7.607,61.061,16.836l18.702,8.894l38.866-50.195l30.928,24.03l-38.942,50.323l13.102,15.856
	c13.433,16.268,23.837,34.462,30.876,54.125l6.962,19.404l62.396-8.019l4.933,38.962L1256.571,1055.331z"/>
</svg>
