<?xml version="1.0" encoding="utf-8"?>
<!-- Generator: Adobe Illustrator 21.0.2, SVG Export Plug-In . SVG Version: 6.00 Build 0)  -->
<svg version="1.1" id="Слой_1" xmlns="http://www.w3.org/2000/svg" xmlns:xlink="http://www.w3.org/1999/xlink" x="0px" y="0px"
	 viewBox="0 0 1417.32 1417.32" style="enable-background:new 0 0 1417.32 1417.32;" xml:space="preserve">
<style type="text/css">
	.st0{fill:#FFFFFF;}
	.st1{display:none;fill:#FFFFFF;}
	.st2{fill-rule:evenodd;clip-rule:evenodd;fill:#FFFFFF;}
</style>
<g>
	<g>
		<path class="st0" d="M559.521,308.044h0.003c0,46.025,15.937,88.568,41.486,120.304l-0.059,46.204
			c-1.152,1.824-6.48,5.306-13.217,7.29l-79.592,20.654c-0.13,0.035-0.262,0.07-0.393,0.107
			c-50.67,14.187-77.182,63.825-77.182,105.526v23.052c0,25.242,22.107,45.779,49.286,45.779l457.129-0.051
			c27.174,0,49.284-20.537,49.284-45.779v-23.052c0-41.704-26.511-91.342-77.182-105.526c-0.131-0.037-0.262-0.072-0.393-0.107
			L829.1,481.79c-6.737-1.984-12.063-5.466-13.217-7.29l-0.054-43.253c0.064-0.077,0.134-0.147,0.198-0.224
			c27.294-32.599,42.326-74.834,42.326-118.931v-32.217c27.229-88.637,8.038-165.485-1.812-187.854
			c-0.032-0.072-0.072-0.139-0.104-0.211c-0.19-0.422-0.404-0.828-0.62-1.231c-0.126-0.235-0.243-0.473-0.374-0.7
			c-0.201-0.344-0.422-0.676-0.642-1.009c-0.179-0.272-0.353-0.547-0.542-0.809c-0.182-0.248-0.377-0.484-0.569-0.724
			c-0.254-0.318-0.505-0.638-0.775-0.943c-0.147-0.165-0.307-0.318-0.459-0.478c-0.329-0.347-0.66-0.689-1.01-1.012
			c-0.131-0.12-0.27-0.227-0.403-0.344c-0.385-0.337-0.77-0.668-1.176-0.972c-0.147-0.11-0.302-0.208-0.449-0.315
			c-0.404-0.288-0.807-0.571-1.227-0.83c-0.203-0.126-0.414-0.232-0.62-0.35c-0.379-0.216-0.756-0.435-1.146-0.625
			c-0.275-0.136-0.561-0.251-0.842-0.377c-0.336-0.147-0.67-0.302-1.016-0.432c-0.326-0.126-0.663-0.224-0.997-0.334
			c-0.318-0.104-0.63-0.214-0.954-0.302c-0.336-0.091-0.681-0.16-1.023-0.238c-0.336-0.075-0.67-0.155-1.013-0.214
			c-0.31-0.053-0.622-0.082-0.935-0.123c-0.39-0.051-0.78-0.102-1.173-0.131c-0.262-0.019-0.526-0.019-0.791-0.027
			c-0.454-0.016-0.908-0.027-1.365-0.013c-0.225,0.008-0.452,0.029-0.676,0.043c-0.491,0.029-0.983,0.069-1.475,0.136
			c-0.072,0.008-0.142,0.008-0.214,0.019c-20.582,2.937-45.689-3.068-72.273-9.429c-47.023-11.25-100.062-23.91-146.528,9.565
			c-44.936,3.861-76.794,41.595-76.794,92.597c0,37.082,17.217,103.308,21.167,118.013V308.044z M846.403,530.424l51.333,13.322
			c30.055,8.516,45.778,38.783,45.778,64.332v23.053c0,0.582-2.175,3.055-6.531,3.055l-457.129,0.051
			c-4.353,0-6.528-2.473-6.528-3.055v-23.052c0-25.549,15.726-55.817,45.781-64.335l51.603-13.391
			c31.773,38.038,83.245,61.179,137.855,61.179C763.166,591.581,814.628,568.451,846.403,530.424z M815.6,276.478v35.616
			c0,37.627-14.16,72.097-36.249,95.951c-0.053,0.053-0.102,0.11-0.155,0.163c-18.989,20.43-43.803,33.037-70.544,33.037
			c-56.667,0-106.375-62.241-106.375-133.196v-7.29c0-21.21,8.981-52.225,15.696-71.852c96.761,2.219,169.774,25.44,197.624,35.739
			v11.832H815.6z M800.78,516.034c-23.802,20.652-57.006,32.823-92.218,32.823c-35.247,0-68.486-12.201-92.296-32.892
			c15.066-8.345,27.438-21.968,27.438-41.093l0.011-9.138c19.755,11.629,41.828,18.235,64.935,18.235
			c22.682,0,44.575-5.867,64.467-16.967l0.013,7.792C773.131,494.028,785.621,507.7,800.78,516.034z M622.813,121.99
			c0.099,0,0.192-0.013,0.289-0.013c0.604-0.008,1.208-0.032,1.812-0.091c0.235-0.024,0.462-0.067,0.695-0.096
			c0.462-0.061,0.922-0.12,1.379-0.211c0.289-0.056,0.566-0.136,0.85-0.203c0.393-0.093,0.789-0.184,1.176-0.302
			c0.31-0.093,0.609-0.211,0.914-0.318c0.35-0.123,0.703-0.24,1.05-0.385c0.326-0.136,0.642-0.294,0.959-0.443
			c0.31-0.147,0.62-0.283,0.924-0.446c0.364-0.195,0.714-0.414,1.064-0.628c0.243-0.15,0.492-0.283,0.732-0.446
			c0.452-0.302,0.885-0.63,1.31-0.964c0.12-0.094,0.249-0.174,0.369-0.273c31.425-25.656,72.209-15.902,115.387-5.568
			c23.24,5.562,47.105,11.255,70.282,11.343c5.566,20.559,11.042,56.981,5.163,100.365c-34.779-12.657-116.346-37.32-224.076-37.32
			c-0.062,0-0.12,0.008-0.182,0.008c-0.449,0.002-0.895,0.035-1.344,0.067c-0.275,0.019-0.553,0.029-0.828,0.059
			c-0.353,0.04-0.7,0.104-1.05,0.16c-0.361,0.059-0.727,0.107-1.083,0.184c-0.211,0.045-0.417,0.109-0.628,0.163
			c-0.478,0.118-0.954,0.235-1.419,0.385c-0.075,0.024-0.144,0.056-0.216,0.08c-0.585,0.195-1.163,0.406-1.721,0.646
			c-0.008,0.003-0.016,0.008-0.024,0.011c-0.617,0.267-1.221,0.561-1.806,0.884c-0.094,0.05-0.182,0.115-0.275,0.168
			c-0.492,0.281-0.978,0.569-1.446,0.887c-0.294,0.2-0.569,0.424-0.855,0.638c-0.254,0.192-0.516,0.371-0.759,0.571
			c-0.39,0.323-0.759,0.67-1.125,1.023c-0.125,0.12-0.259,0.227-0.382,0.35c-0.351,0.35-0.676,0.724-1.002,1.1
			c-0.128,0.147-0.265,0.283-0.387,0.435c-0.257,0.312-0.492,0.646-0.732,0.977c-0.176,0.24-0.361,0.473-0.526,0.724
			c-0.168,0.254-0.321,0.524-0.479,0.788c-0.214,0.353-0.43,0.7-0.623,1.063c-0.11,0.206-0.203,0.422-0.305,0.633
			c-0.133,0.273-0.272,0.539-0.396,0.817c-1.472-10.043-2.394-19.274-2.394-26.598C581.113,149.042,592.034,121.99,622.813,121.99z
			 M524.595,1185.594c-0.131-0.037-0.262-0.072-0.393-0.107l-79.589-20.655c-6.737-1.984-12.065-5.466-13.217-7.29l-0.053-43.253
			c0.064-0.077,0.134-0.149,0.198-0.227c27.294-32.599,42.325-74.834,42.325-118.931v-32.217
			c27.23-88.637,8.038-165.485-1.812-187.854c-0.03-0.067-0.067-0.125-0.096-0.192c-0.203-0.452-0.43-0.889-0.662-1.322
			c-0.107-0.198-0.208-0.4-0.321-0.595c-0.23-0.398-0.481-0.78-0.738-1.159c-0.144-0.216-0.283-0.438-0.433-0.646
			c-0.235-0.323-0.486-0.63-0.74-0.94c-0.195-0.24-0.385-0.486-0.588-0.716c-0.235-0.264-0.489-0.513-0.735-0.766
			c-0.238-0.243-0.47-0.491-0.719-0.721c-0.256-0.238-0.526-0.454-0.793-0.678c-0.257-0.216-0.508-0.438-0.772-0.641
			c-0.31-0.237-0.636-0.451-0.957-0.67c-0.238-0.16-0.465-0.331-0.708-0.481c-0.39-0.243-0.799-0.462-1.205-0.681
			c-0.187-0.099-0.369-0.211-0.559-0.305c-0.465-0.232-0.943-0.435-1.424-0.633c-0.144-0.059-0.286-0.128-0.433-0.184
			c-0.494-0.19-0.999-0.352-1.51-0.505c-0.15-0.045-0.294-0.099-0.447-0.142c-0.468-0.131-0.946-0.232-1.427-0.331
			c-0.208-0.043-0.414-0.096-0.623-0.131c-0.403-0.069-0.81-0.115-1.219-0.16c-0.302-0.035-0.604-0.077-0.908-0.099
			c-0.318-0.021-0.641-0.024-0.962-0.032c-0.406-0.011-0.813-0.024-1.219-0.011c-0.246,0.008-0.492,0.032-0.737,0.048
			c-0.481,0.032-0.965,0.07-1.446,0.134c-0.069,0.008-0.136,0.008-0.206,0.018c-20.582,2.935-45.69-3.068-72.273-9.429
			c-47.023-11.25-100.062-23.912-146.529,9.565c-44.936,3.861-76.794,41.595-76.794,92.597c0,37.082,17.217,103.307,21.167,118.013
			v17.822c0,46.022,15.937,88.565,41.486,120.301l-0.056,46.204c-1.152,1.824-6.48,5.306-13.217,7.29l-79.592,20.655
			c-0.131,0.035-0.262,0.07-0.393,0.107c-50.679,14.187-77.19,63.825-77.19,105.526v23.052c0,25.242,22.107,45.779,49.287,45.779
			l457.128-0.051c27.174,0,49.284-20.537,49.284-45.779v-23.052C601.777,1249.418,575.266,1199.781,524.595,1185.594z
			 M216.235,869.175c-0.339,0.037-0.673,0.099-1.01,0.155c-0.377,0.059-0.754,0.112-1.122,0.19
			c-0.192,0.043-0.382,0.099-0.572,0.147c-0.497,0.12-0.991,0.243-1.473,0.398c-0.048,0.016-0.096,0.037-0.144,0.053
			c-1.264,0.417-2.477,0.937-3.626,1.57c-0.051,0.027-0.099,0.062-0.15,0.091c-0.537,0.302-1.063,0.617-1.569,0.964
			c-0.264,0.179-0.51,0.382-0.767,0.574c-0.281,0.211-0.572,0.411-0.844,0.635c-0.377,0.313-0.732,0.652-1.09,0.991
			c-0.136,0.131-0.283,0.248-0.414,0.382c-0.345,0.345-0.666,0.716-0.989,1.087c-0.131,0.152-0.273,0.294-0.401,0.448
			c-0.254,0.31-0.486,0.641-0.724,0.969c-0.179,0.243-0.366,0.481-0.534,0.731s-0.318,0.521-0.476,0.78
			c-0.214,0.352-0.433,0.702-0.625,1.068c-0.11,0.206-0.203,0.422-0.305,0.633c-0.134,0.272-0.272,0.539-0.396,0.817
			c-1.472-10.043-2.394-19.274-2.394-26.599c0.011-23.175,10.932-50.228,41.711-50.228c0.099,0,0.192-0.013,0.291-0.013
			c0.604-0.008,1.205-0.032,1.809-0.091c0.235-0.024,0.465-0.067,0.698-0.099c0.46-0.059,0.919-0.12,1.376-0.208
			c0.289-0.056,0.566-0.136,0.852-0.205c0.393-0.094,0.786-0.184,1.173-0.302c0.31-0.094,0.612-0.211,0.917-0.318
			c0.35-0.122,0.703-0.24,1.047-0.384c0.329-0.136,0.641-0.294,0.959-0.443c0.31-0.147,0.623-0.283,0.925-0.446
			c0.364-0.195,0.713-0.414,1.063-0.628c0.243-0.15,0.492-0.286,0.732-0.443c0.452-0.302,0.885-0.63,1.309-0.964
			c0.12-0.093,0.249-0.174,0.369-0.272c31.425-25.656,72.209-15.901,115.386-5.568c23.24,5.562,47.106,11.255,70.282,11.343
			c5.566,20.559,11.042,56.981,5.163,100.365c-34.782-12.657-116.348-37.32-224.076-37.32c-0.064,0-0.125,0.008-0.19,0.011
			c-0.441,0.003-0.876,0.035-1.312,0.067C216.809,869.135,216.52,869.143,216.235,869.175z M394.865,1091.082
			c-0.059,0.059-0.115,0.123-0.174,0.181c-18.986,20.422-43.792,33.021-70.528,33.021c-56.667,0-106.376-62.241-106.376-133.196
			v-7.292c0-21.21,8.981-52.225,15.697-71.849c96.761,2.219,169.774,25.437,197.624,35.739v47.451
			C431.108,1032.76,416.95,1067.228,394.865,1091.082z M416.29,1199.076c-23.801,20.652-57.006,32.823-92.218,32.823
			c-35.247,0-68.486-12.2-92.296-32.892c15.066-8.347,27.441-21.971,27.441-41.095l0.01-9.138
			c19.756,11.629,41.828,18.235,64.938,18.235c22.682,0,44.575-5.867,64.465-16.967l0.01,7.794
			C388.641,1177.07,401.131,1190.742,416.29,1199.076z M559.022,1314.172c0,0.582-2.175,3.055-6.531,3.055l-457.129,0.051
			c-4.353,0-6.529-2.473-6.529-3.055v-23.052c0-25.552,15.726-55.819,45.786-64.335l51.598-13.391
			c31.773,38.038,83.245,61.179,137.855,61.179c54.602,0,106.063-23.13,137.839-61.157l51.33,13.322
			c30.055,8.518,45.781,38.786,45.781,64.335V1314.172z M1293.577,1185.596c-0.131-0.037-0.262-0.072-0.393-0.107l-79.592-20.654
			c-6.737-1.984-12.063-5.466-13.217-7.29l-0.054-43.253c0.064-0.077,0.134-0.149,0.198-0.227
			c27.294-32.599,42.325-74.834,42.325-118.931v-32.217c27.23-88.637,8.038-165.485-1.812-187.854
			c-0.029-0.069-0.069-0.131-0.099-0.2c-0.198-0.441-0.419-0.865-0.647-1.287c-0.115-0.213-0.222-0.43-0.342-0.638
			c-0.219-0.376-0.457-0.737-0.697-1.098c-0.158-0.237-0.311-0.481-0.479-0.713c-0.214-0.294-0.446-0.574-0.673-0.857
			c-0.216-0.27-0.43-0.545-0.66-0.801c-0.203-0.227-0.419-0.441-0.63-0.657c-0.272-0.281-0.543-0.566-0.829-0.831
			c-0.211-0.195-0.433-0.371-0.649-0.555c-0.305-0.259-0.604-0.521-0.919-0.761c-0.254-0.192-0.521-0.366-0.786-0.55
			c-0.294-0.203-0.58-0.411-0.882-0.598c-0.334-0.208-0.682-0.39-1.026-0.579c-0.246-0.133-0.486-0.278-0.735-0.403
			c-0.414-0.206-0.839-0.385-1.267-0.564c-0.198-0.083-0.387-0.174-0.588-0.251c-0.457-0.176-0.922-0.32-1.392-0.464
			c-0.188-0.056-0.369-0.126-0.559-0.176c-0.443-0.123-0.898-0.219-1.353-0.312c-0.229-0.048-0.459-0.107-0.689-0.147
			c-0.39-0.067-0.789-0.11-1.184-0.158c-0.313-0.037-0.623-0.08-0.938-0.104c-0.315-0.021-0.636-0.024-0.954-0.032
			c-0.406-0.011-0.813-0.024-1.222-0.011c-0.248,0.008-0.497,0.032-0.745,0.048c-0.479,0.032-0.957,0.069-1.435,0.133
			c-0.069,0.011-0.139,0.011-0.211,0.019c-20.581,2.935-45.689-3.068-72.272-9.429c-47.023-11.25-100.062-23.912-146.531,9.565
			c-44.936,3.861-76.797,41.595-76.797,92.597c0,37.082,17.217,103.307,21.167,118.013v17.822
			c0,46.025,15.937,88.567,41.486,120.304l-0.059,46.204c-1.151,1.824-6.478,5.306-13.214,7.287l-79.592,20.657
			c-0.131,0.035-0.262,0.069-0.393,0.107c-50.671,14.187-77.182,63.825-77.182,105.526v23.052c0,25.242,22.107,45.779,49.286,45.779
			l457.129-0.051c27.173,0,49.284-20.537,49.284-45.779v-23.052C1370.762,1249.418,1344.248,1199.781,1293.577,1185.596z
			 M985.222,869.175c-0.337,0.037-0.668,0.099-1,0.152c-0.379,0.059-0.762,0.112-1.133,0.192c-0.187,0.04-0.369,0.096-0.556,0.141
			c-0.502,0.123-1.002,0.246-1.491,0.403c-0.04,0.013-0.078,0.029-0.118,0.043c-1.272,0.416-2.496,0.942-3.65,1.581
			c-0.04,0.021-0.078,0.051-0.118,0.072c-0.547,0.307-1.085,0.63-1.601,0.983c-0.259,0.176-0.505,0.376-0.756,0.566
			c-0.286,0.213-0.58,0.416-0.853,0.643c-0.379,0.315-0.74,0.657-1.099,0.999c-0.133,0.125-0.275,0.243-0.406,0.374
			c-0.347,0.347-0.673,0.724-0.997,1.097c-0.128,0.147-0.267,0.286-0.39,0.438c-0.259,0.315-0.494,0.652-0.735,0.983
			c-0.174,0.237-0.358,0.47-0.521,0.715c-0.171,0.257-0.323,0.529-0.483,0.796c-0.211,0.347-0.425,0.694-0.618,1.055
			c-0.109,0.208-0.206,0.427-0.307,0.641c-0.131,0.27-0.272,0.537-0.393,0.814c-1.473-10.046-2.395-19.277-2.395-26.601
			c-0.002-23.178,10.919-50.231,41.697-50.231c0.099,0,0.192-0.013,0.292-0.013c0.604-0.008,1.208-0.032,1.809-0.091
			c0.235-0.024,0.465-0.067,0.7-0.099c0.459-0.059,0.919-0.12,1.376-0.208c0.289-0.056,0.566-0.136,0.853-0.205
			c0.393-0.094,0.786-0.184,1.173-0.302c0.31-0.094,0.612-0.211,0.917-0.318c0.35-0.122,0.703-0.24,1.05-0.384
			c0.326-0.136,0.642-0.294,0.959-0.443c0.31-0.147,0.62-0.283,0.925-0.446c0.363-0.195,0.713-0.414,1.063-0.628
			c0.244-0.15,0.492-0.286,0.732-0.443c0.452-0.302,0.885-0.63,1.31-0.964c0.12-0.093,0.249-0.174,0.369-0.272
			c31.425-25.656,72.208-15.901,115.386-5.568c23.24,5.562,47.106,11.255,70.282,11.343c5.566,20.559,11.042,56.981,5.163,100.365
			c-34.779-12.657-116.349-37.32-224.077-37.32c-0.064,0-0.125,0.008-0.19,0.011c-0.438,0.005-0.874,0.035-1.309,0.067
			C985.797,869.132,985.508,869.143,985.222,869.175z M1163.844,1091.087c-0.054,0.053-0.102,0.109-0.155,0.163
			c-18.989,20.43-43.803,33.037-70.544,33.037c-56.667,0-106.375-62.241-106.375-133.196v-7.295h0.003
			c0-21.21,8.981-52.225,15.696-71.849c96.761,2.219,169.774,25.437,197.624,35.739v47.451
			C1200.093,1032.763,1185.932,1067.234,1163.844,1091.087z M1185.272,1199.076c-23.801,20.652-57.006,32.823-92.218,32.823
			c-35.247,0-68.486-12.2-92.296-32.892c15.069-8.347,27.441-21.971,27.441-41.095l0.01-9.138
			c19.756,11.629,41.829,18.235,64.935,18.235c22.682,0,44.575-5.867,64.467-16.967l0.011,7.794
			C1157.623,1177.07,1170.113,1190.742,1185.272,1199.076z M1328.009,1314.172h-0.002c0,0.582-2.175,3.055-6.531,3.055
			l-457.128,0.051c-4.353,0-6.528-2.473-6.528-3.055v-23.052c0-25.549,15.726-55.817,45.78-64.335l51.604-13.392
			c31.772,38.038,83.245,61.179,137.854,61.179c54.602,0,106.063-23.13,137.838-61.157l51.333,13.322
			c30.057,8.518,45.78,38.783,45.78,64.335V1314.172z M910.924,350.357c114.034,70.682,182.114,192.825,182.114,326.739
			c0,11.797,9.572,21.362,21.378,21.362c11.806,0,21.378-9.565,21.378-21.362c0-73.977-19.24-146.875-55.639-210.81
			c-35.286-61.982-86.013-114.624-146.694-152.235c-10.034-6.222-23.213-3.13-29.435,6.894
			C897.801,330.968,900.889,344.138,910.924,350.357z M302.71,698.459c11.806,0,21.378-9.565,21.378-21.362
			c0-133.922,68.088-256.073,182.136-326.75c10.034-6.219,13.124-19.386,6.902-29.413c-6.224-10.027-19.4-13.116-29.435-6.897
			c-60.686,37.608-111.418,90.252-146.71,152.237c-36.406,63.94-55.646,136.841-55.646,210.823
			C281.333,688.894,290.905,698.459,302.71,698.459z M898.84,1036.05c-4.979-10.697-17.688-15.338-28.398-10.366
			c-50.86,23.626-105.326,35.605-161.877,35.605c-56.566,0-111.042-11.984-161.91-35.621c-10.702-4.98-23.422-0.337-28.398,10.363
			c-4.978,10.697-0.334,23.402,10.371,28.377c56.558,26.281,117.097,39.605,179.937,39.605c62.826,0,123.354-13.319,179.901-39.589
			C899.171,1059.453,903.815,1046.75,898.84,1036.05z"/>
	</g>
</g>
</svg>
