<?xml version="1.0" encoding="utf-8"?>
<!-- Generator: Adobe Illustrator 21.0.2, SVG Export Plug-In . SVG Version: 6.00 Build 0)  -->
<svg version="1.1" id="Слой_1" xmlns="http://www.w3.org/2000/svg" xmlns:xlink="http://www.w3.org/1999/xlink" x="0px" y="0px"
	 viewBox="0 0 1417.32 1417.32" style="enable-background:new 0 0 1417.32 1417.32;" xml:space="preserve">
<style type="text/css">
	.st0{fill:#FFFFFF;}
	.st1{display:none;fill:#FFFFFF;}
	.st2{fill-rule:evenodd;clip-rule:evenodd;fill:#FFFFFF;}
</style>
<path class="st0" d="M580.106,790.433l0.139-0.139c9.839-9.839,9.768-25.724-0.068-35.563c-9.841-9.836-25.863-9.768-35.702,0.068
	c-9.839,9.839-9.839,25.792,0,35.634c4.921,4.918,11.368,7.38,17.816,7.38S575.185,795.351,580.106,790.433z"/>
<path class="st0" d="M1165.52,72.997c-105.586,0-191.485,85.901-191.485,191.485c0,35.687,9.841,69.108,26.911,97.743
	l-48.294,38.098c-59.887-64.886-145.599-105.599-240.651-105.599c-13.915,0-25.195,11.282-25.195,25.195
	c0,13.913,11.28,25.195,25.195,25.195c79.033,0,150.441,33.258,200.978,86.506l-32.013,25.256c-0.486-0.496-0.937-1.013-1.429-1.504
	c-92.341-92.341-242.596-92.338-334.937,0.003c-0.569,0.569-1.109,1.156-1.67,1.728l-119.942-94.762
	c17.113-28.66,26.979-62.124,26.979-97.861c0-105.584-85.899-191.485-191.485-191.485S66.997,158.896,66.997,264.48
	s85.899,191.485,191.485,191.485c51.741,0,98.72-20.663,133.215-54.125l119.917,94.742c-37.576,59.305-47.13,132.643-24.205,201.374
	c4.404,13.2,18.675,20.328,31.875,15.929c13.2-4.404,20.33-18.675,15.929-31.872c-22.525-67.524-5.276-140.714,45.019-191.006
	c72.694-72.699,190.978-72.699,263.672-0.003c72.696,72.696,72.696,190.981,0,263.674c-51.066,51.068-127.929,68.075-195.813,43.341
	c-13.081-4.769-27.536,1.973-32.298,15.047c-4.764,13.074,1.973,27.536,15.047,32.298c18.284,6.662,37.083,10.887,55.969,12.872
	v40.015C545.752,885.48,434.855,766.585,434.855,622.259c0-13.913-11.28-25.195-25.195-25.195s-25.195,11.282-25.195,25.195
	c0,172.13,133.465,313.672,302.344,326.58v32.905c-93.714,12.381-166.289,92.737-166.289,189.774
	c0,105.584,85.899,191.485,191.485,191.485s191.485-85.901,191.485-191.485c0-97.04-72.575-177.395-166.289-189.774V858.163
	c52.87-5.712,103.485-29,142.341-67.854c79.675-79.678,90.54-202.437,32.721-293.942l31.96-25.216
	c28.398,43.492,44.931,95.4,44.931,151.107c0,13.913,11.28,25.195,25.195,25.195s25.195-11.282,25.195-25.195
	c0-67.478-20.517-130.25-55.629-182.419l48.292-38.098c34.503,33.52,81.525,54.22,133.314,54.22
	c105.586,0,191.485-85.901,191.485-191.485S1271.104,72.997,1165.52,72.997z M258.485,405.576
	c-77.798,0-141.094-63.293-141.094-141.094s63.296-141.094,141.094-141.094s141.094,63.293,141.094,141.094
	S336.285,405.576,258.485,405.576z M853.098,1171.523c0,77.801-63.296,141.094-141.094,141.094s-141.094-63.293-141.094-141.094
	c0-77.801,63.296-141.094,141.094-141.094S853.098,1093.722,853.098,1171.523z M1165.52,405.576
	c-77.798,0-141.094-63.293-141.094-141.094s63.296-141.094,141.094-141.094s141.094,63.293,141.094,141.094
	S1243.318,405.576,1165.52,405.576z"/>
</svg>
