<svg id="Слой_1" data-name="Слой 1" xmlns="http://www.w3.org/2000/svg" viewBox="0 0 1417.32 1417.32"><defs><style>.cls-1{fill:#fff;}</style></defs><title>Soc Icons</title><path class="cls-1" d="M710.56,23.17C330.71,23.17,22.8,331.1,22.8,710.95s307.91,687.78,687.76,687.78,687.8-307.9,687.8-687.78S1090.45,23.17,710.56,23.17Zm0,1268.09c-320.5,0-580.31-259.78-580.31-580.31S390.06,130.67,710.56,130.67,1290.9,390.48,1290.9,710.95,1031.1,1291.26,710.56,1291.26Zm324.3-867.82c-20,13.72-65.85,33.78-88.54,33.78a.22.22,0,0,0,0,.1c-25.81-29.13-62.2-47.26-102.57-47.26-78.34,0-141.91,68.38-141.91,152.8a164.77,164.77,0,0,0,3.66,34.07h-.07c-106.26-3-230.52-60.36-300.53-158.57-43,80.23-5.8,169.4,43,201.91-16.66,1.38-47.43-2.09-62-17.22-1,53.19,22.78,123.7,109.46,149.3-16.7,9.66-46.2,6.87-59,4.78,4.5,45,62.94,103.77,126.79,103.77-22.75,28.32-100.42,79.81-196.52,63.37,65.29,42.82,141.42,67.56,221.94,67.56,228.9,0,406.72-199.74,397.12-446.2,0-.29,0-.56,0-.85,0-.66,0-1.35,0-1.93,0-.76,0-1.47,0-2.33a255.48,255.48,0,0,0,68.77-78.14c-11.56,6.88-46.34,20.59-78.76,24C996.5,494.38,1027.3,454.87,1034.86,423.44Z"/></svg>