<svg id="Слой_1" data-name="Слой 1" xmlns="http://www.w3.org/2000/svg" viewBox="0 0 1417.32 1417.32"><defs><style>.cls-1{fill:#fff;}</style></defs><title>Soc Icons</title><path class="cls-1" d="M711,16.5c-383.28,0-694,310.72-694,694s310.7,694,694,694,694-310.71,694-694S1094.3,16.5,711,16.5Zm0,1279.56c-323.4,0-585.52-262.13-585.52-585.56S387.58,125,711,125s585.59,262.16,585.59,585.53S1034.38,1296.06,711,1296.06Zm44-779.88c0-27,28-33.29,41-33.29h78V364l-89.34-.5c-122,0-149.8,88.69-149.8,145.57v95.23H546.28V726.75H634.8v330.73H755V726.75H857l18.66-122.48H755Z"/></svg>