<svg id="Слой_1" data-name="Слой 1" xmlns="http://www.w3.org/2000/svg" viewBox="0 0 1417.32 1417.32"><defs><style>.cls-1{fill:#fff;}</style></defs><title>Soc Icons</title><path class="cls-1" d="M711.86,592.85A116.71,116.71,0,0,0,595.3,709.4c0,64.23,52.32,116.45,116.56,116.45a116.5,116.5,0,1,0,0-233Zm154.5-228.32h-309c-104.89,0-190.28,85.44-190.28,190.34v309c0,104.94,85.39,190.28,190.28,190.28h309c105,0,190.35-85.34,190.35-190.28v-309C1056.71,450,971.32,364.53,866.36,364.53ZM711.86,887.1c-98,0-177.69-79.73-177.69-177.7s79.72-177.7,177.69-177.7,177.69,79.69,177.69,177.7S809.84,887.1,711.86,887.1Zm216.9-330.69a45,45,0,1,1,13.12-31.74A45.26,45.26,0,0,1,928.76,556.41ZM711.86,19.73C331,19.73,22.21,328.49,22.21,709.37S331,1399,711.86,1399s689.66-308.76,689.66-689.63S1092.77,19.73,711.86,19.73Zm0,1271.52c-321.4,0-581.84-260.48-581.84-581.88S390.46,127.52,711.86,127.52,1293.77,388,1293.77,709.37,1033.22,1291.24,711.86,1291.24Z"/></svg>