<svg id="Слой_1" data-name="Слой 1" xmlns="http://www.w3.org/2000/svg" viewBox="0 0 1417.32 1417.32"><defs><style>.cls-1{fill:#fff;}</style></defs><title>Soc Icons</title><path class="cls-1" d="M708.4,16.54c-383.14,0-693.71,310.6-693.71,693.73S325.25,1404,708.4,1404s693.68-310.59,693.68-693.73S1091.54,16.54,708.4,16.54Zm0,1279.07c-323.27,0-585.33-262-585.33-585.33S385.12,125,708.4,125,1293.69,387,1293.69,710.27,1031.7,1295.6,708.4,1295.6ZM426.8,363.09a65.06,65.06,0,1,0,65.08,65.11A65,65,0,0,0,426.8,363.09Zm-65,693.77h130V536.53h-130ZM882.11,536.53c-111.36,1.88-166.16,83-173.43,86.74V536.53H578.59v520.33H708.68V753.33c0-11.09,27.38-100.24,130-86.71,55.19,3.63,84.91,76.5,86.75,86.71v303.53l129.55.59V697.23C1050.46,645.22,1024.4,538.41,882.11,536.53Z"/></svg>